<?xml version="1.0" encoding="UTF-8" standalone="no"?>
<svg xmlns="http://www.w3.org/2000/svg" version="1.2" baseProfile="tiny" viewBox="0.00 0.00 1931.00 1086.00">
<g stroke-width="2.00" fill="none" stroke-linecap="butt">
<path stroke="#151515" vector-effect="non-scaling-stroke" d="
  M 7.10 0.00
  Q 2.83 0.54 0.00 2.47"
/>
<path stroke="#151515" vector-effect="non-scaling-stroke" d="
  M 66.71 0.00
  L 0.00 22.17"
/>
<path stroke="#151515" vector-effect="non-scaling-stroke" d="
  M 274.75 0.00
  Q 268.72 23.50 269.31 47.50
  Q 269.53 56.45 264.05 61.37
  Q 260.79 64.29 253.25 66.64
  Q 246.51 68.73 239.89 70.87
  Q 234.53 72.59 232.14 74.23
  C 226.92 77.83 225.91 84.06 227.94 90.08
  Q 234.46 109.36 239.90 126.33
  C 241.50 131.30 240.26 136.56 236.40 140.22
  Q 234.05 142.45 226.43 144.90
  Q 201.55 152.87 177.63 160.86
  C 172.33 162.63 168.72 166.50 168.10 172.04
  C 167.76 175.07 169.21 180.55 170.63 182.78
  Q 176.56 192.03 186.99 188.59
  Q 234.57 172.89 282.69 156.96
  Q 288.51 155.03 291.81 155.07
  C 299.07 155.16 303.07 158.87 307.42 165.06
  C 319.83 182.72 334.30 197.93 351.57 210.22
  C 356.97 214.06 360.34 217.41 362.24 223.32
  Q 365.56 233.69 369.15 244.19
  C 371.20 250.17 371.01 255.58 366.62 260.14
  Q 364.70 262.13 361.17 263.30
  Q 224.74 308.24 90.64 352.47
  C 87.79 353.41 85.08 351.43 84.57 348.58
  C 84.13 346.18 85.87 343.64 86.92 341.53
  Q 88.21 338.94 89.24 336.26
  Q 99.49 309.47 94.82 280.85
  C 87.80 237.78 57.47 199.86 13.13 191.66
  A 1.00 1.00 0.0 0 1 12.43 190.21
  Q 25.42 165.88 24.10 137.75
  Q 22.40 101.69 0.00 72.59"
/>
<path stroke="#151515" vector-effect="non-scaling-stroke" d="
  M 291.48 0.00
  Q 284.78 24.03 284.72 46.50
  Q 284.60 85.06 300.81 122.42
  C 321.79 170.79 361.20 206.62 412.94 218.26
  C 442.55 224.92 474.28 223.01 504.11 215.54
  Q 512.64 213.40 523.26 209.86
  Q 584.58 189.44 644.95 169.72
  Q 647.36 168.93 649.89 168.03
  C 654.43 166.41 657.28 163.09 658.11 158.34
  Q 658.58 155.64 657.15 151.34
  Q 636.42 88.77 615.82 26.18
  Q 615.08 23.93 614.31 21.71
  C 611.96 14.93 604.42 10.99 597.47 13.27
  Q 571.15 21.89 542.28 31.53
  C 530.37 35.51 518.88 34.55 509.05 26.22
  Q 497.19 16.17 497.99 0.00"
/>
<path stroke="#151515" vector-effect="non-scaling-stroke" d="
  M 563.13 0.00
  C 565.97 0.61 567.97 2.57 570.15 3.35
  Q 572.39 4.15 573.89 3.69
  Q 580.18 1.75 586.50 0.00"
/>
<path stroke="#151515" vector-effect="non-scaling-stroke" d="
  M 625.49 0.00
  Q 643.86 55.14 662.13 110.73
  C 663.94 116.26 665.91 120.25 671.12 122.14
  Q 710.89 136.65 751.37 131.30
  Q 792.02 125.92 823.70 104.96
  Q 880.25 67.55 896.96 0.00"
/>
<path stroke="#151515" vector-effect="non-scaling-stroke" d="
  M 962.36 0.00
  Q 961.77 25.77 954.03 49.76
  Q 930.83 121.62 866.04 159.76
  C 859.97 163.34 852.98 166.53 846.30 169.61
  Q 846.11 169.70 846.19 169.90
  L 846.19 169.91
  Q 846.27 170.10 846.47 170.04
  Q 902.60 151.51 958.75 132.97
  C 974.78 127.68 991.24 134.21 998.99 149.14
  Q 1001.08 153.16 1002.42 158.42
  Q 1002.65 159.33 1003.58 159.21
  L 1007.16 158.75
  Q 1007.75 158.68 1008.10 158.19
  C 1030.02 127.37 1060.57 104.56 1095.26 89.48
  Q 1108.37 83.78 1115.27 81.46
  Q 1162.01 65.80 1210.65 49.91
  Q 1214.28 48.73 1217.82 48.56
  C 1242.45 47.40 1269.59 55.53 1278.75 81.17
  A 0.42 0.42 0.0 0 0 1279.51 81.24
  C 1298.50 47.77 1325.09 21.40 1359.08 3.56
  Q 1363.16 1.42 1367.50 0.00"
/>
<path stroke="#151515" vector-effect="non-scaling-stroke" d="
  M 1519.13 0.00
  Q 1523.54 1.05 1528.92 3.87
  Q 1550.31 15.07 1566.07 29.02
  Q 1569.11 31.71 1572.70 33.63
  C 1633.82 66.22 1671.26 130.42 1674.10 198.74
  Q 1674.51 208.56 1673.71 218.76
  C 1669.66 270.25 1645.90 318.24 1606.93 351.60
  Q 1568.82 384.23 1518.45 394.58
  Q 1475.39 403.44 1430.99 391.87
  Q 1430.38 391.71 1430.49 392.33
  Q 1433.32 407.43 1424.87 419.65
  C 1420.08 426.58 1413.57 430.67 1405.40 433.35
  Q 1341.18 454.48 1279.52 474.86
  C 1270.37 477.88 1261.30 480.18 1252.02 482.25
  C 1215.06 490.48 1176.44 490.30 1140.75 478.35
  A 0.41 0.41 0.0 0 0 1140.24 478.90
  Q 1146.43 493.79 1140.66 507.77
  C 1136.93 516.81 1128.76 524.58 1119.74 527.56
  Q 1001.87 566.45 886.16 604.59
  Q 885.97 604.65 886.02 604.85
  L 886.02 604.86
  Q 886.07 605.07 886.29 605.04
  Q 949.92 594.30 1006.25 623.81
  Q 1024.53 633.38 1039.88 646.60
  C 1042.09 648.50 1044.13 650.33 1046.73 651.73
  C 1092.02 676.04 1123.90 715.41 1139.91 764.17
  Q 1143.31 774.53 1145.19 783.92
  Q 1159.06 853.06 1126.45 914.77
  C 1104.25 956.79 1067.19 989.30 1021.56 1005.57
  Q 964.43 1025.93 905.94 1010.58
  A 0.36 0.36 0.0 0 0 905.51 1011.03
  Q 906.44 1013.99 906.43 1017.15
  Q 906.38 1036.76 890.81 1047.41
  Q 887.25 1049.84 878.21 1052.85
  Q 827.85 1069.60 777.46 1086.00"
/>
<path stroke="#151515" vector-effect="non-scaling-stroke" d="
  M 556.50 1086.00
  Q 557.58 1082.03 556.58 1078.74
  Q 554.03 1070.28 549.06 1055.89
  C 547.45 1051.23 545.32 1046.94 541.22 1044.08
  Q 512.91 1024.33 493.70 996.20
  Q 490.89 992.08 488.13 989.94
  C 483.56 986.39 477.44 985.81 471.89 987.65
  Q 422.88 1003.84 372.72 1020.40
  C 366.92 1022.31 360.83 1020.03 357.58 1015.01
  C 356.51 1013.36 355.99 1011.38 355.35 1009.52
  C 353.53 1004.25 354.86 998.96 359.06 995.19
  Q 361.12 993.34 367.50 991.25
  Q 391.02 983.58 414.57 975.87
  Q 420.00 974.09 422.25 972.32
  C 426.88 968.69 428.13 962.57 426.28 957.03
  Q 420.43 939.60 414.42 921.27
  Q 413.11 917.27 413.55 914.44
  Q 414.79 906.54 422.49 903.83
  Q 432.06 900.47 441.06 897.73
  C 451.10 894.67 456.14 889.28 455.90 878.28
  C 455.43 857.53 458.81 836.47 465.30 816.97
  C 466.92 812.11 467.10 807.34 465.53 802.66
  Q 462.09 792.44 458.47 781.08
  C 456.44 774.73 452.80 770.00 445.75 769.51
  Q 442.94 769.31 436.59 771.41
  Q 298.39 817.00 160.19 862.60
  Q 155.04 864.30 154.81 864.40
  C 150.95 866.23 147.14 872.71 152.52 875.48
  C 180.94 890.14 200.72 917.50 207.75 948.62
  Q 216.69 988.19 199.01 1021.72
  A 1.03 1.02 -70.6 0 0 199.72 1023.21
  C 215.14 1026.15 228.76 1032.24 241.01 1041.97
  Q 262.90 1059.35 273.72 1086.00"
/>
<path stroke="#151515" vector-effect="non-scaling-stroke" d="
  M 251.52 1086.00
  Q 239.86 1063.30 218.78 1050.50
  C 202.70 1040.72 183.99 1037.56 165.60 1041.49
  Q 157.26 1043.27 148.68 1046.44
  Q 148.64 1046.45 148.63 1046.42
  L 148.53 1046.18
  Q 148.41 1045.92 148.67 1045.79
  Q 176.88 1031.53 186.56 1001.44
  Q 193.29 980.53 188.73 957.02
  Q 182.82 926.48 161.12 905.59
  C 143.67 888.79 120.01 880.65 96.23 884.67
  Q 90.40 885.65 77.00 890.06
  Q 38.63 902.69 0.00 915.36"
/>
<path stroke="#151515" vector-effect="non-scaling-stroke" d="
  M 0.00 894.95
  Q 13.11 890.58 26.23 886.25
  Q 26.41 886.19 26.35 886.01
  L 26.35 886.00
  Q 26.30 885.82 26.11 885.87
  Q 13.23 889.33 0.00 891.09"
/>
<path stroke="#151515" vector-effect="non-scaling-stroke" d="
  M 0.00 828.08
  Q 61.50 807.73 123.19 787.42
  Q 127.88 785.88 129.62 784.15
  C 134.16 779.67 133.96 774.98 131.99 769.04
  Q 110.75 704.89 89.87 641.48
  C 87.99 635.76 83.89 632.15 77.86 631.46
  Q 74.96 631.12 66.14 634.11
  Q 44.71 641.37 23.67 648.25
  Q 21.06 649.11 18.45 650.04
  Q 9.16 653.37 0.00 652.21"
/>
<path stroke="#151515" vector-effect="non-scaling-stroke" d="
  M 0.00 455.65
  Q 7.89 456.80 15.26 459.64
  Q 35.01 467.22 42.53 486.97
  A 0.55 0.55 0.0 0 0 43.53 487.04
  C 63.30 451.70 93.31 422.97 130.09 406.21
  Q 132.09 405.30 129.90 405.48
  C 123.75 405.98 117.44 403.94 112.32 400.22
  Q 111.80 399.83 111.35 400.30
  Q 93.96 418.24 72.54 425.57
  Q 56.27 431.15 0.00 449.39"
/>
<path stroke="#151515" vector-effect="non-scaling-stroke" d="
  M 0.00 382.46
  Q 9.21 379.34 18.49 376.29
  Q 31.32 372.06 36.70 369.15
  C 60.85 356.08 75.08 331.14 75.93 303.79
  Q 77.07 267.43 54.79 238.77
  C 42.97 223.56 24.68 211.87 5.51 209.13
  Q 2.72 208.74 0.00 208.20"
/>
<path stroke="#151515" vector-effect="non-scaling-stroke" d="
  M 0.00 170.40
  Q 6.25 149.81 2.75 128.50
  Q 1.65 121.83 0.00 115.25"
/>
<path stroke="#151515" vector-effect="non-scaling-stroke" d="
  M 1561.28 296.46
  Q 1590.70 267.52 1603.71 228.47
  Q 1620.00 179.56 1606.43 129.36
  Q 1601.98 112.88 1593.80 96.54
  Q 1579.45 67.83 1556.76 46.88
  C 1527.80 20.13 1488.84 3.96 1449.20 2.95
  Q 1388.09 1.41 1340.33 38.98
  C 1320.24 54.78 1303.73 75.84 1292.40 98.66
  Q 1269.16 145.47 1273.64 197.98
  Q 1273.96 201.78 1274.55 206.46
  Q 1275.12 210.93 1277.35 213.42
  C 1279.57 215.90 1283.48 217.05 1286.70 216.02
  Q 1303.44 210.68 1319.61 205.14
  C 1327.03 202.61 1334.37 204.93 1336.95 212.76
  Q 1356.53 272.21 1374.37 326.15
  Q 1376.53 332.69 1381.83 334.64
  Q 1437.50 355.14 1494.07 337.09
  Q 1532.41 324.86 1561.28 296.46"
/>
<path stroke="#151515" vector-effect="non-scaling-stroke" d="
  M 1304.73 227.30
  Q 1280.94 235.21 1257.33 243.11
  Q 1247.72 246.33 1242.90 246.57
  C 1226.26 247.37 1211.93 235.73 1209.48 219.10
  Q 1208.77 214.30 1210.53 204.56
  Q 1221.88 141.86 1232.38 82.39
  C 1234.06 72.88 1224.86 65.78 1215.87 68.72
  Q 1169.17 83.97 1125.97 98.44
  C 1087.46 111.33 1051.30 133.22 1027.12 165.61
  C 998.79 203.55 990.25 250.85 999.97 297.03
  Q 1008.52 337.72 1032.69 370.90
  C 1059.83 408.17 1101.77 431.18 1147.70 434.53
  Q 1177.38 436.70 1206.51 430.29
  C 1213.63 428.72 1220.78 427.12 1227.76 424.81
  Q 1294.80 402.68 1361.32 380.78
  C 1367.03 378.90 1371.14 372.20 1369.18 366.28
  Q 1347.43 300.47 1325.81 234.85
  C 1323.42 227.58 1316.05 223.91 1308.75 226.05
  Q 1306.71 226.65 1304.73 227.30"
/>
<path stroke="#151515" vector-effect="non-scaling-stroke" d="
  M 723.73 403.33
  A 0.70 0.69 -70.8 0 0 724.21 404.33
  Q 731.20 405.68 737.83 407.90
  C 776.32 420.75 801.89 458.28 806.73 497.67
  Q 810.72 530.09 796.42 558.12
  C 794.36 562.16 797.95 566.59 802.43 565.11
  Q 936.36 520.91 1071.18 476.52
  Q 1075.64 475.05 1077.59 473.20
  C 1083.37 467.70 1082.20 461.65 1079.65 454.34
  Q 1076.62 445.65 1073.68 436.43
  C 1072.28 432.04 1069.64 427.81 1065.82 425.14
  Q 1037.03 404.94 1017.43 375.92
  C 1012.78 369.04 1005.10 366.15 997.07 368.80
  Q 947.42 385.17 897.07 401.74
  Q 894.56 402.56 891.95 402.23
  Q 883.55 401.16 880.49 391.98
  C 877.88 384.15 880.52 376.46 888.34 373.86
  Q 914.85 365.06 942.43 356.07
  C 947.59 354.39 951.15 350.30 951.86 344.87
  Q 952.28 341.72 950.86 337.51
  Q 944.44 318.42 938.86 301.28
  C 936.79 294.93 940.08 287.57 946.56 285.33
  Q 956.02 282.05 967.17 278.52
  C 973.15 276.63 977.95 273.27 979.83 267.23
  Q 980.84 263.98 980.79 256.55
  Q 980.57 226.90 990.23 197.63
  C 991.76 192.98 991.99 189.12 990.55 184.69
  Q 987.15 174.24 983.82 163.85
  C 981.56 156.82 978.53 151.43 970.56 150.67
  Q 967.86 150.41 959.17 153.29
  Q 820.46 199.21 681.58 244.92
  C 679.05 245.75 676.88 247.04 675.57 249.45
  C 673.31 253.64 675.37 255.71 679.00 257.67
  C 706.86 272.69 725.85 299.59 732.77 330.59
  Q 741.38 369.20 723.73 403.33"
/>
<path stroke="#151515" vector-effect="non-scaling-stroke" d="
  M 702.28 217.36
  Q 749.96 202.21 812.44 181.12
  Q 816.99 179.58 812.31 180.67
  Q 766.67 191.32 719.38 179.06
  A 0.21 0.21 0.0 0 0 719.12 179.30
  C 721.74 194.46 716.01 209.62 702.17 217.11
  Q 700.87 217.81 702.28 217.36"
/>
<path stroke="#151515" vector-effect="non-scaling-stroke" d="
  M 614.05 247.47
  C 627.13 244.39 641.24 244.94 654.72 247.99
  Q 655.31 248.12 655.47 247.54
  Q 658.77 235.42 667.99 229.78
  Q 670.08 228.50 667.75 229.27
  L 614.02 246.96
  Q 613.88 247.00 613.92 247.15
  L 614.00 247.44
  Q 614.01 247.48 614.05 247.47"
/>
<path stroke="#151515" vector-effect="non-scaling-stroke" d="
  M 672.77 427.21
  Q 672.74 427.15 672.81 427.12
  Q 677.02 425.42 680.77 422.96
  C 727.74 392.05 723.79 325.10 687.63 288.43
  C 670.14 270.70 645.73 261.66 621.16 265.96
  Q 613.66 267.28 602.04 271.12
  Q 505.46 303.12 409.61 334.63
  A 0.79 0.78 72.1 0 0 409.11 335.62
  L 515.80 658.94
  A 0.66 0.66 0.0 0 0 516.64 659.36
  Q 623.01 624.32 732.55 588.19
  Q 743.21 584.68 749.18 581.30
  C 772.03 568.41 785.64 544.91 787.19 518.86
  C 788.92 489.97 777.64 459.73 755.80 440.64
  Q 728.49 416.76 693.85 422.07
  Q 685.56 423.35 673.35 427.68
  A 0.37 0.37 0.0 0 1 672.87 427.46
  L 672.77 427.21"
/>
<path stroke="#151515" vector-effect="non-scaling-stroke" d="
  M 551.79 267.05
  L 551.79 267.04
  Q 551.73 266.85 551.54 266.90
  Q 517.83 275.87 484.64 275.10
  Q 456.36 274.44 429.42 265.64
  A 0.41 0.41 0.0 0 0 428.92 266.18
  Q 434.85 280.78 429.67 293.97
  Q 425.07 305.70 414.97 311.51
  Q 411.44 313.54 415.30 312.26
  Q 482.88 289.90 551.62 267.36
  Q 551.86 267.29 551.79 267.05"
/>
<path stroke="#151515" vector-effect="non-scaling-stroke" d="
  M 390.56 342.24
  C 387.72 333.63 389.81 325.10 396.87 319.52
  Q 398.86 317.94 396.45 318.74
  Q 285.31 355.39 173.74 392.16
  Q 173.58 392.21 173.62 392.37
  L 173.62 392.37
  Q 173.66 392.53 173.82 392.50
  C 230.05 382.43 286.54 397.60 329.80 434.97
  Q 332.82 437.57 335.87 439.22
  C 365.81 455.43 390.10 478.11 408.04 507.21
  Q 436.11 552.77 437.95 605.75
  Q 438.29 615.72 437.44 625.74
  Q 432.45 684.23 396.73 730.45
  C 376.97 756.02 350.37 776.05 320.75 788.64
  Q 320.54 788.73 320.62 788.94
  L 320.62 788.95
  Q 320.68 789.10 320.83 789.05
  Q 374.82 771.33 428.76 753.39
  Q 437.51 750.48 441.76 750.03
  C 456.65 748.45 471.41 757.83 476.06 772.28
  Q 476.88 774.84 477.75 777.30
  A 0.85 0.85 0.0 0 0 478.59 777.87
  C 480.24 777.81 482.50 778.08 483.59 776.55
  C 503.94 748.01 531.97 726.19 563.57 711.40
  Q 563.62 711.37 563.63 711.32
  Q 563.65 711.27 563.63 711.22
  Q 563.59 711.06 563.43 711.11
  Q 540.12 718.83 521.59 701.84
  C 511.27 692.38 504.27 680.43 498.24 667.58
  Q 497.13 665.22 496.26 662.60
  Q 443.40 502.37 390.56 342.24"
/>
<path stroke="#151515" vector-effect="non-scaling-stroke" d="
  M 187.92 410.16
  Q 171.28 412.13 156.96 416.74
  C 75.07 443.09 26.65 528.39 38.48 612.81
  Q 39.02 616.67 40.54 618.68
  C 43.71 622.88 48.01 622.98 52.90 621.34
  Q 69.28 615.86 84.58 610.91
  C 91.09 608.80 98.35 611.37 100.61 618.24
  Q 118.41 672.32 138.33 732.60
  C 139.65 736.59 142.72 739.67 146.68 741.09
  C 181.35 753.58 219.22 755.09 254.47 744.24
  Q 298.45 730.70 328.82 698.74
  Q 360.93 664.95 371.66 620.05
  Q 383.82 569.13 364.90 519.04
  C 337.30 446.00 265.74 400.96 187.92 410.16"
/>
<path stroke="#151515" vector-effect="non-scaling-stroke" d="
  M 768.72 643.43
  Q 733.26 654.95 697.71 666.81
  Q 697.63 666.84 697.63 666.92
  Q 697.63 667.10 697.55 667.28
  A 0.05 0.05 0.0 0 0 697.60 667.35
  C 720.47 667.00 745.74 676.07 753.82 699.84
  A 0.53 0.53 0.0 0 0 754.78 699.93
  Q 781.67 652.20 828.22 625.64
  C 832.51 623.19 836.97 621.14 841.43 618.96
  Q 843.25 618.07 841.22 618.23
  Q 832.05 618.97 823.90 613.09
  A 1.04 1.04 0.0 0 0 822.53 613.22
  Q 807.27 629.43 786.54 637.23
  Q 778.51 640.24 768.72 643.43"
/>
<path stroke="#151515" vector-effect="non-scaling-stroke" d="
  M 891.12 624.08
  C 846.88 631.44 809.16 655.82 782.82 692.27
  Q 755.94 729.47 749.46 776.97
  Q 746.40 799.42 749.97 826.65
  C 750.81 833.06 756.58 836.55 762.79 834.54
  Q 778.90 829.33 794.42 824.07
  C 799.77 822.25 804.68 822.26 808.98 826.26
  Q 811.14 828.27 813.21 834.60
  Q 831.43 890.14 848.39 941.67
  C 850.65 948.54 852.73 952.13 859.39 954.42
  Q 904.69 970.01 949.99 960.95
  C 1017.76 947.39 1070.08 895.07 1084.15 827.80
  Q 1092.52 787.79 1081.66 748.41
  Q 1072.14 713.85 1050.76 686.24
  C 1012.99 637.47 952.06 613.93 891.12 624.08"
/>
<path stroke="#151515" vector-effect="non-scaling-stroke" d="
  M 602.86 716.62
  C 570.80 727.17 540.03 743.88 517.05 767.30
  Q 471.53 813.68 471.29 879.82
  Q 471.25 890.12 472.53 899.94
  Q 479.27 951.38 508.76 990.81
  C 535.32 1026.34 574.65 1048.72 619.61 1053.01
  C 649.76 1055.88 679.89 1051.28 708.59 1041.77
  Q 772.52 1020.58 836.90 999.41
  C 841.55 997.88 844.55 993.20 844.76 988.45
  C 844.87 986.22 844.00 983.88 843.29 981.76
  Q 822.51 919.13 801.97 856.36
  Q 800.13 850.75 798.15 848.65
  C 794.68 845.00 789.10 843.17 784.30 844.73
  Q 758.08 853.26 731.76 862.12
  Q 722.16 865.35 717.04 865.41
  Q 700.81 865.58 690.76 852.53
  C 684.40 844.27 683.54 835.45 685.42 825.06
  Q 696.62 763.08 707.40 702.20
  C 708.20 697.67 707.53 693.63 703.99 690.29
  Q 699.82 686.35 693.92 686.79
  Q 692.21 686.92 685.48 689.18
  Q 640.82 704.12 602.86 716.62"
/>
<path stroke="#151515" vector-effect="non-scaling-stroke" d="
  M 176.72 836.44
  L 176.72 836.45
  Q 176.78 836.57 176.91 836.53
  Q 233.08 818.03 289.17 799.51
  Q 289.33 799.45 289.29 799.29
  L 289.29 799.28
  Q 289.24 799.12 289.08 799.16
  Q 241.71 810.35 194.65 797.79
  A 0.31 0.30 1.9 0 0 194.27 798.14
  C 197.21 813.38 190.74 829.00 176.81 836.18
  Q 176.65 836.27 176.72 836.44"
/>
<path stroke="#151515" vector-effect="non-scaling-stroke" d="
  M 143.28 848.59
  Q 143.34 848.55 143.38 848.50
  Q 143.84 847.77 143.02 848.04
  Q 116.27 856.78 89.50 865.60
  Q 89.28 865.68 89.34 865.91
  L 89.34 865.92
  Q 89.41 866.15 89.64 866.10
  Q 109.85 862.03 129.86 866.80
  A 0.82 0.82 0.0 0 0 130.85 866.19
  Q 133.59 854.50 143.28 848.59"
/>
<path stroke="#151515" vector-effect="non-scaling-stroke" d="
  M 1637.29 0.00
  Q 1679.10 126.92 1720.91 253.49
  Q 1723.40 261.02 1726.30 266.55
  C 1736.70 286.40 1752.35 308.47 1777.38 307.08
  Q 1782.37 306.80 1795.94 302.32
  Q 1863.59 280.01 1931.00 257.70"
/>
<path stroke="#151515" vector-effect="non-scaling-stroke" d="
  M 1931.00 275.11
  Q 1929.04 274.27 1926.88 273.85
  Q 1919.01 272.34 1911.00 271.92
  Q 1903.30 271.50 1896.37 273.79
  Q 1851.05 288.73 1805.52 303.78
  Q 1783.74 310.98 1761.87 322.91
  C 1735.29 337.42 1712.11 357.06 1694.72 381.79
  A 1.54 1.52 14.7 0 1 1693.63 382.42
  L 1689.74 382.81
  A 0.68 0.68 0.0 0 1 1689.01 382.29
  C 1685.07 365.72 1672.93 354.81 1656.03 354.66
  Q 1650.94 354.61 1641.72 357.67
  Q 1504.68 403.13 1364.78 449.04
  Q 1356.81 451.66 1353.12 454.35
  Q 1344.55 460.59 1342.18 471.07
  Q 1342.03 471.75 1341.35 471.59
  Q 1321.75 466.93 1302.22 470.62
  Q 1295.33 471.93 1283.24 475.94
  Q 1186.11 508.13 1089.60 539.84
  C 1078.53 543.48 1073.47 554.76 1077.10 565.75
  Q 1129.83 725.30 1182.85 886.22
  C 1184.80 892.13 1187.78 897.32 1190.83 902.90
  C 1200.93 921.35 1217.46 938.98 1239.78 936.96
  C 1242.64 936.70 1245.47 935.85 1248.31 935.42
  Q 1249.54 935.23 1248.42 935.78
  C 1217.30 950.81 1189.72 972.45 1169.89 1000.53
  A 1.66 1.61 14.6 0 1 1168.71 1001.20
  L 1165.27 1001.50
  Q 1164.45 1001.57 1164.22 1000.77
  Q 1163.13 996.87 1161.65 993.41
  C 1156.27 980.90 1144.23 973.26 1130.77 973.45
  Q 1125.84 973.52 1118.34 976.00
  Q 978.90 1022.12 838.00 1068.49
  Q 831.77 1070.54 827.90 1073.44
  Q 821.56 1078.19 818.49 1086.00"
/>
<path stroke="#151515" vector-effect="non-scaling-stroke" d="
  M 1657.96 0.00
  L 1741.19 252.17
  Q 1741.52 253.15 1742.50 252.83
  L 1931.00 190.66"
/>
<path stroke="#151515" vector-effect="non-scaling-stroke" d="
  M 1925.00 0.00
  Q 1913.74 13.24 1898.11 20.96
  Q 1898.02 21.01 1897.99 21.11
  Q 1897.95 21.28 1898.14 21.37
  Q 1898.32 21.47 1898.51 21.39
  C 1906.75 18.23 1915.70 15.69 1924.50 14.97
  Q 1927.79 14.70 1931.00 14.27"
/>
<path stroke="#151515" vector-effect="non-scaling-stroke" d="
  M 1931.00 469.94
  C 1913.76 471.85 1898.35 459.50 1896.11 442.52
  Q 1895.42 437.31 1897.26 427.19
  Q 1908.55 365.11 1918.84 306.41
  Q 1920.35 297.83 1913.12 293.37
  C 1907.74 290.06 1902.91 292.08 1897.57 293.84
  Q 1856.89 307.25 1814.52 321.35
  C 1780.60 332.64 1748.29 350.27 1724.26 376.50
  Q 1685.05 419.30 1682.80 478.07
  Q 1681.87 502.44 1688.17 527.71
  C 1695.12 555.58 1708.27 582.74 1727.15 604.36
  C 1755.15 636.43 1792.46 654.97 1835.04 658.16
  C 1857.62 659.85 1880.57 657.30 1902.60 651.71
  Q 1906.86 650.63 1916.79 647.47
  Q 1923.84 645.22 1931.00 643.24"
/>
<path stroke="#151515" vector-effect="non-scaling-stroke" d="
  M 1931.00 707.17
  Q 1903.44 712.79 1875.25 711.09
  Q 1850.63 709.61 1827.30 701.97
  A 0.28 0.28 0.0 0 0 1826.94 702.31
  C 1827.67 705.16 1829.00 708.12 1829.44 710.98
  Q 1832.62 731.90 1816.57 745.42
  Q 1814.62 747.06 1811.57 748.52
  Q 1811.48 748.57 1811.52 748.66
  L 1811.64 748.91
  A 0.40 0.39 68.0 0 0 1812.13 749.12
  Q 1886.55 724.14 1929.99 710.15
  Q 1930.63 709.94 1931.00 710.76"
/>
<path stroke="#151515" vector-effect="non-scaling-stroke" d="
  M 1931.00 730.17
  L 1779.89 780.10
  A 0.73 0.72 -18.3 0 0 1779.42 781.02
  L 1880.06 1086.00"
/>
<path stroke="#151515" vector-effect="non-scaling-stroke" d="
  M 1859.36 1086.00
  Q 1843.23 1037.43 1827.19 988.81
  Q 1795.61 893.12 1763.07 794.32
  Q 1759.26 782.76 1759.57 779.44
  Q 1760.44 769.87 1767.87 764.40
  Q 1769.31 763.35 1767.62 763.91
  L 1572.78 828.15
  Q 1570.43 828.92 1572.87 828.54
  Q 1581.66 827.14 1590.77 826.34
  C 1640.21 821.99 1690.00 838.68 1727.45 871.07
  Q 1730.64 873.83 1735.06 876.25
  Q 1792.14 907.63 1819.11 968.48
  Q 1824.93 981.63 1828.93 996.05
  Q 1841.22 1040.43 1832.00 1086.00"
/>
<path stroke="#151515" vector-effect="non-scaling-stroke" d="
  M 1759.68 1086.00
  C 1776.99 1046.00 1779.16 1002.37 1764.97 961.20
  C 1751.28 921.48 1725.05 888.45 1688.94 867.55
  Q 1652.86 846.67 1609.73 845.28
  Q 1599.65 844.96 1589.42 846.07
  Q 1567.82 848.40 1550.68 854.48
  Q 1503.86 871.08 1473.35 910.59
  Q 1437.78 956.66 1434.76 1016.21
  Q 1434.01 1031.03 1436.45 1049.26
  Q 1436.92 1052.77 1438.24 1054.76
  C 1440.32 1057.87 1444.78 1059.57 1448.48 1058.39
  Q 1464.61 1053.21 1481.42 1047.52
  C 1486.51 1045.79 1491.65 1046.04 1495.73 1049.95
  Q 1497.61 1051.76 1499.69 1058.11
  Q 1504.26 1072.07 1508.91 1086.00"
/>
<path stroke="#151515" vector-effect="non-scaling-stroke" d="
  M 1490.57 1086.00
  C 1489.00 1081.74 1487.80 1075.97 1485.20 1072.85
  Q 1481.07 1067.88 1475.13 1067.77
  Q 1472.40 1067.73 1464.84 1070.26
  Q 1440.82 1078.31 1416.74 1086.00"
/>
<path stroke="#151515" vector-effect="non-scaling-stroke" d="
  M 1389.43 1086.00
  C 1376.43 1079.70 1368.95 1066.07 1371.46 1051.99
  Q 1382.52 990.06 1393.57 928.13
  Q 1394.51 922.85 1394.25 920.82
  C 1393.30 913.47 1385.20 908.58 1378.19 910.89
  Q 1323.51 928.84 1287.69 940.81
  Q 1267.14 947.68 1247.89 958.08
  C 1204.27 981.67 1171.56 1019.75 1161.29 1069.00
  Q 1159.87 1075.80 1158.59 1086.00"
/>
<path stroke="#151515" vector-effect="non-scaling-stroke" d="
  M 1142.96 1086.00
  Q 1144.51 1061.92 1152.16 1039.05
  Q 1154.16 1033.09 1152.53 1027.86
  Q 1149.67 1018.62 1145.05 1004.61
  C 1143.04 998.49 1139.78 994.01 1132.93 993.07
  Q 1130.04 992.67 1121.88 995.37
  Q 984.45 1040.82 847.02 1086.00"
/>
<path stroke="#151515" vector-effect="non-scaling-stroke" d="
  M 1620.19 385.36
  Q 1493.46 427.18 1366.75 469.00
  C 1363.73 469.99 1360.42 473.84 1361.44 477.46
  Q 1361.90 479.10 1363.30 479.84
  Q 1390.71 494.37 1405.92 520.22
  Q 1421.13 546.04 1422.10 575.99
  Q 1422.97 602.75 1410.40 626.52
  A 0.99 0.98 19.5 0 0 1411.08 627.94
  Q 1442.39 634.06 1464.05 657.46
  Q 1488.35 683.71 1493.26 721.17
  Q 1497.43 752.99 1483.24 781.07
  C 1481.91 783.71 1482.05 786.52 1484.64 788.28
  Q 1486.52 789.56 1489.03 788.73
  Q 1617.84 746.12 1758.26 699.91
  Q 1762.00 698.68 1763.93 697.01
  C 1769.47 692.23 1768.96 685.95 1766.52 678.81
  Q 1763.19 669.07 1760.34 660.25
  C 1758.48 654.52 1755.46 650.64 1750.47 647.28
  Q 1748.33 645.84 1746.76 644.65
  Q 1721.66 625.59 1704.45 600.08
  C 1701.03 595.01 1696.83 591.87 1690.49 591.41
  Q 1686.95 591.15 1681.51 592.96
  Q 1632.92 609.13 1584.74 624.99
  C 1578.13 627.17 1570.05 624.65 1567.83 617.39
  Q 1567.43 616.10 1566.94 614.85
  C 1564.09 607.61 1567.74 599.79 1575.11 597.36
  Q 1599.23 589.41 1629.27 579.50
  C 1636.65 577.06 1640.18 569.53 1637.77 562.21
  Q 1631.79 544.07 1625.47 525.05
  C 1623.85 520.17 1625.25 514.73 1629.07 511.38
  Q 1631.70 509.09 1636.49 507.63
  Q 1645.91 504.77 1656.21 501.15
  C 1664.28 498.31 1667.46 491.38 1667.33 483.15
  Q 1666.79 451.00 1677.09 420.41
  C 1678.43 416.46 1678.34 411.64 1677.00 407.69
  Q 1673.86 398.46 1670.30 387.13
  C 1668.18 380.41 1665.21 375.28 1657.73 374.29
  Q 1654.83 373.91 1646.13 376.79
  Q 1633.31 381.04 1620.19 385.36"
/>
<path stroke="#151515" vector-effect="non-scaling-stroke" d="
  M 1359.84 650.77
  Q 1392.84 633.77 1400.31 597.07
  C 1405.73 570.46 1397.73 540.78 1381.03 519.68
  C 1363.20 497.16 1336.35 484.77 1307.74 489.49
  Q 1301.04 490.59 1289.16 494.52
  Q 1191.48 526.84 1096.31 558.19
  Q 1095.46 558.47 1095.74 559.32
  L 1202.36 882.42
  A 0.68 0.67 -16.7 0 0 1203.18 882.86
  Q 1205.78 882.12 1208.27 881.30
  Q 1313.68 846.49 1417.35 812.39
  Q 1429.52 808.39 1435.60 804.99
  C 1475.25 782.80 1482.82 733.08 1464.42 694.02
  C 1449.42 662.19 1418.84 640.81 1382.75 645.22
  Q 1375.19 646.14 1359.98 651.11
  A 0.18 0.18 0.0 0 1 1359.84 650.77"
/>
<path stroke="#151515" vector-effect="non-scaling-stroke" d="
  M 1441.54 923.26
  C 1461.08 888.29 1490.39 860.37 1526.60 843.17
  Q 1527.41 842.79 1528.29 842.61
  Q 1528.38 842.59 1528.46 842.53
  Q 1528.57 842.44 1528.56 842.27
  A 0.30 0.29 0.0 0 0 1528.27 841.99
  Q 1523.25 841.80 1521.75 841.52
  Q 1515.28 840.33 1510.16 836.47
  A 0.61 0.60 -49.9 0 0 1509.36 836.54
  Q 1496.98 849.67 1480.94 857.51
  Q 1475.20 860.31 1462.26 864.60
  Q 1422.56 877.76 1384.14 890.37
  Q 1383.31 890.65 1384.18 890.70
  Q 1388.78 890.99 1393.41 891.40
  C 1414.00 893.23 1433.03 902.90 1440.29 923.15
  A 0.69 0.69 0.0 0 0 1441.54 923.26"
/>
</g>
<path fill="#1a1a1a" d="
  M 0.00 0.00
  L 7.10 0.00
  Q 2.83 0.54 0.00 2.47
  L 0.00 0.00
  Z"
/>
<path fill="#0f0f0f" d="
  M 7.10 0.00
  L 66.71 0.00
  L 0.00 22.17
  L 0.00 2.47
  Q 2.83 0.54 7.10 0.00
  Z"
/>
<path fill="#1a1a1a" d="
  M 66.71 0.00
  L 274.75 0.00
  Q 268.72 23.50 269.31 47.50
  Q 269.53 56.45 264.05 61.37
  Q 260.79 64.29 253.25 66.64
  Q 246.51 68.73 239.89 70.87
  Q 234.53 72.59 232.14 74.23
  C 226.92 77.83 225.91 84.06 227.94 90.08
  Q 234.46 109.36 239.90 126.33
  C 241.50 131.30 240.26 136.56 236.40 140.22
  Q 234.05 142.45 226.43 144.90
  Q 201.55 152.87 177.63 160.86
  C 172.33 162.63 168.72 166.50 168.10 172.04
  C 167.76 175.07 169.21 180.55 170.63 182.78
  Q 176.56 192.03 186.99 188.59
  Q 234.57 172.89 282.69 156.96
  Q 288.51 155.03 291.81 155.07
  C 299.07 155.16 303.07 158.87 307.42 165.06
  C 319.83 182.72 334.30 197.93 351.57 210.22
  C 356.97 214.06 360.34 217.41 362.24 223.32
  Q 365.56 233.69 369.15 244.19
  C 371.20 250.17 371.01 255.58 366.62 260.14
  Q 364.70 262.13 361.17 263.30
  Q 224.74 308.24 90.64 352.47
  C 87.79 353.41 85.08 351.43 84.57 348.58
  C 84.13 346.18 85.87 343.64 86.92 341.53
  Q 88.21 338.94 89.24 336.26
  Q 99.49 309.47 94.82 280.85
  C 87.80 237.78 57.47 199.86 13.13 191.66
  A 1.00 1.00 0.0 0 1 12.43 190.21
  Q 25.42 165.88 24.10 137.75
  Q 22.40 101.69 0.00 72.59
  L 0.00 22.17
  L 66.71 0.00
  Z"
/>
<path fill="#0f0f0f" d="
  M 274.75 0.00
  L 291.48 0.00
  Q 284.78 24.03 284.72 46.50
  Q 284.60 85.06 300.81 122.42
  C 321.79 170.79 361.20 206.62 412.94 218.26
  C 442.55 224.92 474.28 223.01 504.11 215.54
  Q 512.64 213.40 523.26 209.86
  Q 584.58 189.44 644.95 169.72
  Q 647.36 168.93 649.89 168.03
  C 654.43 166.41 657.28 163.09 658.11 158.34
  Q 658.58 155.64 657.15 151.34
  Q 636.42 88.77 615.82 26.18
  Q 615.08 23.93 614.31 21.71
  C 611.96 14.93 604.42 10.99 597.47 13.27
  Q 571.15 21.89 542.28 31.53
  C 530.37 35.51 518.88 34.55 509.05 26.22
  Q 497.19 16.17 497.99 0.00
  L 563.13 0.00
  C 565.97 0.61 567.97 2.57 570.15 3.35
  Q 572.39 4.15 573.89 3.69
  Q 580.18 1.75 586.50 0.00
  L 625.49 0.00
  Q 643.86 55.14 662.13 110.73
  C 663.94 116.26 665.91 120.25 671.12 122.14
  Q 710.89 136.65 751.37 131.30
  Q 792.02 125.92 823.70 104.96
  Q 880.25 67.55 896.96 0.00
  L 962.36 0.00
  Q 961.77 25.77 954.03 49.76
  Q 930.83 121.62 866.04 159.76
  C 859.97 163.34 852.98 166.53 846.30 169.61
  Q 846.11 169.70 846.19 169.90
  L 846.19 169.91
  Q 846.27 170.10 846.47 170.04
  Q 902.60 151.51 958.75 132.97
  C 974.78 127.68 991.24 134.21 998.99 149.14
  Q 1001.08 153.16 1002.42 158.42
  Q 1002.65 159.33 1003.58 159.21
  L 1007.16 158.75
  Q 1007.75 158.68 1008.10 158.19
  C 1030.02 127.37 1060.57 104.56 1095.26 89.48
  Q 1108.37 83.78 1115.27 81.46
  Q 1162.01 65.80 1210.65 49.91
  Q 1214.28 48.73 1217.82 48.56
  C 1242.45 47.40 1269.59 55.53 1278.75 81.17
  A 0.42 0.42 0.0 0 0 1279.51 81.24
  C 1298.50 47.77 1325.09 21.40 1359.08 3.56
  Q 1363.16 1.42 1367.50 0.00
  L 1519.13 0.00
  Q 1523.54 1.05 1528.92 3.87
  Q 1550.31 15.07 1566.07 29.02
  Q 1569.11 31.71 1572.70 33.63
  C 1633.82 66.22 1671.26 130.42 1674.10 198.74
  Q 1674.51 208.56 1673.71 218.76
  C 1669.66 270.25 1645.90 318.24 1606.93 351.60
  Q 1568.82 384.23 1518.45 394.58
  Q 1475.39 403.44 1430.99 391.87
  Q 1430.38 391.71 1430.49 392.33
  Q 1433.32 407.43 1424.87 419.65
  C 1420.08 426.58 1413.57 430.67 1405.40 433.35
  Q 1341.18 454.48 1279.52 474.86
  C 1270.37 477.88 1261.30 480.18 1252.02 482.25
  C 1215.06 490.48 1176.44 490.30 1140.75 478.35
  A 0.41 0.41 0.0 0 0 1140.24 478.90
  Q 1146.43 493.79 1140.66 507.77
  C 1136.93 516.81 1128.76 524.58 1119.74 527.56
  Q 1001.87 566.45 886.16 604.59
  Q 885.97 604.65 886.02 604.85
  L 886.02 604.86
  Q 886.07 605.07 886.29 605.04
  Q 949.92 594.30 1006.25 623.81
  Q 1024.53 633.38 1039.88 646.60
  C 1042.09 648.50 1044.13 650.33 1046.73 651.73
  C 1092.02 676.04 1123.90 715.41 1139.91 764.17
  Q 1143.31 774.53 1145.19 783.92
  Q 1159.06 853.06 1126.45 914.77
  C 1104.25 956.79 1067.19 989.30 1021.56 1005.57
  Q 964.43 1025.93 905.94 1010.58
  A 0.36 0.36 0.0 0 0 905.51 1011.03
  Q 906.44 1013.99 906.43 1017.15
  Q 906.38 1036.76 890.81 1047.41
  Q 887.25 1049.84 878.21 1052.85
  Q 827.85 1069.60 777.46 1086.00
  L 556.50 1086.00
  Q 557.58 1082.03 556.58 1078.74
  Q 554.03 1070.28 549.06 1055.89
  C 547.45 1051.23 545.32 1046.94 541.22 1044.08
  Q 512.91 1024.33 493.70 996.20
  Q 490.89 992.08 488.13 989.94
  C 483.56 986.39 477.44 985.81 471.89 987.65
  Q 422.88 1003.84 372.72 1020.40
  C 366.92 1022.31 360.83 1020.03 357.58 1015.01
  C 356.51 1013.36 355.99 1011.38 355.35 1009.52
  C 353.53 1004.25 354.86 998.96 359.06 995.19
  Q 361.12 993.34 367.50 991.25
  Q 391.02 983.58 414.57 975.87
  Q 420.00 974.09 422.25 972.32
  C 426.88 968.69 428.13 962.57 426.28 957.03
  Q 420.43 939.60 414.42 921.27
  Q 413.11 917.27 413.55 914.44
  Q 414.79 906.54 422.49 903.83
  Q 432.06 900.47 441.06 897.73
  C 451.10 894.67 456.14 889.28 455.90 878.28
  C 455.43 857.53 458.81 836.47 465.30 816.97
  C 466.92 812.11 467.10 807.34 465.53 802.66
  Q 462.09 792.44 458.47 781.08
  C 456.44 774.73 452.80 770.00 445.75 769.51
  Q 442.94 769.31 436.59 771.41
  Q 298.39 817.00 160.19 862.60
  Q 155.04 864.30 154.81 864.40
  C 150.95 866.23 147.14 872.71 152.52 875.48
  C 180.94 890.14 200.72 917.50 207.75 948.62
  Q 216.69 988.19 199.01 1021.72
  A 1.03 1.02 -70.6 0 0 199.72 1023.21
  C 215.14 1026.15 228.76 1032.24 241.01 1041.97
  Q 262.90 1059.35 273.72 1086.00
  L 251.52 1086.00
  Q 239.86 1063.30 218.78 1050.50
  C 202.70 1040.72 183.99 1037.56 165.60 1041.49
  Q 157.26 1043.27 148.68 1046.44
  Q 148.64 1046.45 148.63 1046.42
  L 148.53 1046.18
  Q 148.41 1045.92 148.67 1045.79
  Q 176.88 1031.53 186.56 1001.44
  Q 193.29 980.53 188.73 957.02
  Q 182.82 926.48 161.12 905.59
  C 143.67 888.79 120.01 880.65 96.23 884.67
  Q 90.40 885.65 77.00 890.06
  Q 38.63 902.69 0.00 915.36
  L 0.00 894.95
  Q 13.11 890.58 26.23 886.25
  Q 26.41 886.19 26.35 886.01
  L 26.35 886.00
  Q 26.30 885.82 26.11 885.87
  Q 13.23 889.33 0.00 891.09
  L 0.00 828.08
  Q 61.50 807.73 123.19 787.42
  Q 127.88 785.88 129.62 784.15
  C 134.16 779.67 133.96 774.98 131.99 769.04
  Q 110.75 704.89 89.87 641.48
  C 87.99 635.76 83.89 632.15 77.86 631.46
  Q 74.96 631.12 66.14 634.11
  Q 44.71 641.37 23.67 648.25
  Q 21.06 649.11 18.45 650.04
  Q 9.16 653.37 0.00 652.21
  L 0.00 455.65
  Q 7.89 456.80 15.26 459.64
  Q 35.01 467.22 42.53 486.97
  A 0.55 0.55 0.0 0 0 43.53 487.04
  C 63.30 451.70 93.31 422.97 130.09 406.21
  Q 132.09 405.30 129.90 405.48
  C 123.75 405.98 117.44 403.94 112.32 400.22
  Q 111.80 399.83 111.35 400.30
  Q 93.96 418.24 72.54 425.57
  Q 56.27 431.15 0.00 449.39
  L 0.00 382.46
  Q 9.21 379.34 18.49 376.29
  Q 31.32 372.06 36.70 369.15
  C 60.85 356.08 75.08 331.14 75.93 303.79
  Q 77.07 267.43 54.79 238.77
  C 42.97 223.56 24.68 211.87 5.51 209.13
  Q 2.72 208.74 0.00 208.20
  L 0.00 170.40
  Q 6.25 149.81 2.75 128.50
  Q 1.65 121.83 0.00 115.25
  L 0.00 72.59
  Q 22.40 101.69 24.10 137.75
  Q 25.42 165.88 12.43 190.21
  A 1.00 1.00 0.0 0 0 13.13 191.66
  C 57.47 199.86 87.80 237.78 94.82 280.85
  Q 99.49 309.47 89.24 336.26
  Q 88.21 338.94 86.92 341.53
  C 85.87 343.64 84.13 346.18 84.57 348.58
  C 85.08 351.43 87.79 353.41 90.64 352.47
  Q 224.74 308.24 361.17 263.30
  Q 364.70 262.13 366.62 260.14
  C 371.01 255.58 371.20 250.17 369.15 244.19
  Q 365.56 233.69 362.24 223.32
  C 360.34 217.41 356.97 214.06 351.57 210.22
  C 334.30 197.93 319.83 182.72 307.42 165.06
  C 303.07 158.87 299.07 155.16 291.81 155.07
  Q 288.51 155.03 282.69 156.96
  Q 234.57 172.89 186.99 188.59
  Q 176.56 192.03 170.63 182.78
  C 169.21 180.55 167.76 175.07 168.10 172.04
  C 168.72 166.50 172.33 162.63 177.63 160.86
  Q 201.55 152.87 226.43 144.90
  Q 234.05 142.45 236.40 140.22
  C 240.26 136.56 241.50 131.30 239.90 126.33
  Q 234.46 109.36 227.94 90.08
  C 225.91 84.06 226.92 77.83 232.14 74.23
  Q 234.53 72.59 239.89 70.87
  Q 246.51 68.73 253.25 66.64
  Q 260.79 64.29 264.05 61.37
  Q 269.53 56.45 269.31 47.50
  Q 268.72 23.50 274.75 0.00
  Z
  M 1561.28 296.46
  Q 1590.70 267.52 1603.71 228.47
  Q 1620.00 179.56 1606.43 129.36
  Q 1601.98 112.88 1593.80 96.54
  Q 1579.45 67.83 1556.76 46.88
  C 1527.80 20.13 1488.84 3.96 1449.20 2.95
  Q 1388.09 1.41 1340.33 38.98
  C 1320.24 54.78 1303.73 75.84 1292.40 98.66
  Q 1269.16 145.47 1273.64 197.98
  Q 1273.96 201.78 1274.55 206.46
  Q 1275.12 210.93 1277.35 213.42
  C 1279.57 215.90 1283.48 217.05 1286.70 216.02
  Q 1303.44 210.68 1319.61 205.14
  C 1327.03 202.61 1334.37 204.93 1336.95 212.76
  Q 1356.53 272.21 1374.37 326.15
  Q 1376.53 332.69 1381.83 334.64
  Q 1437.50 355.14 1494.07 337.09
  Q 1532.41 324.86 1561.28 296.46
  Z
  M 1304.73 227.30
  Q 1280.94 235.21 1257.33 243.11
  Q 1247.72 246.33 1242.90 246.57
  C 1226.26 247.37 1211.93 235.73 1209.48 219.10
  Q 1208.77 214.30 1210.53 204.56
  Q 1221.88 141.86 1232.38 82.39
  C 1234.06 72.88 1224.86 65.78 1215.87 68.72
  Q 1169.17 83.97 1125.97 98.44
  C 1087.46 111.33 1051.30 133.22 1027.12 165.61
  C 998.79 203.55 990.25 250.85 999.97 297.03
  Q 1008.52 337.72 1032.69 370.90
  C 1059.83 408.17 1101.77 431.18 1147.70 434.53
  Q 1177.38 436.70 1206.51 430.29
  C 1213.63 428.72 1220.78 427.12 1227.76 424.81
  Q 1294.80 402.68 1361.32 380.78
  C 1367.03 378.90 1371.14 372.20 1369.18 366.28
  Q 1347.43 300.47 1325.81 234.85
  C 1323.42 227.58 1316.05 223.91 1308.75 226.05
  Q 1306.71 226.65 1304.73 227.30
  Z
  M 723.73 403.33
  A 0.70 0.69 -70.8 0 0 724.21 404.33
  Q 731.20 405.68 737.83 407.90
  C 776.32 420.75 801.89 458.28 806.73 497.67
  Q 810.72 530.09 796.42 558.12
  C 794.36 562.16 797.95 566.59 802.43 565.11
  Q 936.36 520.91 1071.18 476.52
  Q 1075.64 475.05 1077.59 473.20
  C 1083.37 467.70 1082.20 461.65 1079.65 454.34
  Q 1076.62 445.65 1073.68 436.43
  C 1072.28 432.04 1069.64 427.81 1065.82 425.14
  Q 1037.03 404.94 1017.43 375.92
  C 1012.78 369.04 1005.10 366.15 997.07 368.80
  Q 947.42 385.17 897.07 401.74
  Q 894.56 402.56 891.95 402.23
  Q 883.55 401.16 880.49 391.98
  C 877.88 384.15 880.52 376.46 888.34 373.86
  Q 914.85 365.06 942.43 356.07
  C 947.59 354.39 951.15 350.30 951.86 344.87
  Q 952.28 341.72 950.86 337.51
  Q 944.44 318.42 938.86 301.28
  C 936.79 294.93 940.08 287.57 946.56 285.33
  Q 956.02 282.05 967.17 278.52
  C 973.15 276.63 977.95 273.27 979.83 267.23
  Q 980.84 263.98 980.79 256.55
  Q 980.57 226.90 990.23 197.63
  C 991.76 192.98 991.99 189.12 990.55 184.69
  Q 987.15 174.24 983.82 163.85
  C 981.56 156.82 978.53 151.43 970.56 150.67
  Q 967.86 150.41 959.17 153.29
  Q 820.46 199.21 681.58 244.92
  C 679.05 245.75 676.88 247.04 675.57 249.45
  C 673.31 253.64 675.37 255.71 679.00 257.67
  C 706.86 272.69 725.85 299.59 732.77 330.59
  Q 741.38 369.20 723.73 403.33
  Z
  M 702.28 217.36
  Q 749.96 202.21 812.44 181.12
  Q 816.99 179.58 812.31 180.67
  Q 766.67 191.32 719.38 179.06
  A 0.21 0.21 0.0 0 0 719.12 179.30
  C 721.74 194.46 716.01 209.62 702.17 217.11
  Q 700.87 217.81 702.28 217.36
  Z
  M 614.05 247.47
  C 627.13 244.39 641.24 244.94 654.72 247.99
  Q 655.31 248.12 655.47 247.54
  Q 658.77 235.42 667.99 229.78
  Q 670.08 228.50 667.75 229.27
  L 614.02 246.96
  Q 613.88 247.00 613.92 247.15
  L 614.00 247.44
  Q 614.01 247.48 614.05 247.47
  Z
  M 672.77 427.21
  Q 672.74 427.15 672.81 427.12
  Q 677.02 425.42 680.77 422.96
  C 727.74 392.05 723.79 325.10 687.63 288.43
  C 670.14 270.70 645.73 261.66 621.16 265.96
  Q 613.66 267.28 602.04 271.12
  Q 505.46 303.12 409.61 334.63
  A 0.79 0.78 72.1 0 0 409.11 335.62
  L 515.80 658.94
  A 0.66 0.66 0.0 0 0 516.64 659.36
  Q 623.01 624.32 732.55 588.19
  Q 743.21 584.68 749.18 581.30
  C 772.03 568.41 785.64 544.91 787.19 518.86
  C 788.92 489.97 777.64 459.73 755.80 440.64
  Q 728.49 416.76 693.85 422.07
  Q 685.56 423.35 673.35 427.68
  A 0.37 0.37 0.0 0 1 672.87 427.46
  L 672.77 427.21
  Z
  M 551.79 267.05
  L 551.79 267.04
  Q 551.73 266.85 551.54 266.90
  Q 517.83 275.87 484.64 275.10
  Q 456.36 274.44 429.42 265.64
  A 0.41 0.41 0.0 0 0 428.92 266.18
  Q 434.85 280.78 429.67 293.97
  Q 425.07 305.70 414.97 311.51
  Q 411.44 313.54 415.30 312.26
  Q 482.88 289.90 551.62 267.36
  Q 551.86 267.29 551.79 267.05
  Z
  M 390.56 342.24
  C 387.72 333.63 389.81 325.10 396.87 319.52
  Q 398.86 317.94 396.45 318.74
  Q 285.31 355.39 173.74 392.16
  Q 173.58 392.21 173.62 392.37
  L 173.62 392.37
  Q 173.66 392.53 173.82 392.50
  C 230.05 382.43 286.54 397.60 329.80 434.97
  Q 332.82 437.57 335.87 439.22
  C 365.81 455.43 390.10 478.11 408.04 507.21
  Q 436.11 552.77 437.95 605.75
  Q 438.29 615.72 437.44 625.74
  Q 432.45 684.23 396.73 730.45
  C 376.97 756.02 350.37 776.05 320.75 788.64
  Q 320.54 788.73 320.62 788.94
  L 320.62 788.95
  Q 320.68 789.10 320.83 789.05
  Q 374.82 771.33 428.76 753.39
  Q 437.51 750.48 441.76 750.03
  C 456.65 748.45 471.41 757.83 476.06 772.28
  Q 476.88 774.84 477.75 777.30
  A 0.85 0.85 0.0 0 0 478.59 777.87
  C 480.24 777.81 482.50 778.08 483.59 776.55
  C 503.94 748.01 531.97 726.19 563.57 711.40
  Q 563.62 711.37 563.63 711.32
  Q 563.65 711.27 563.63 711.22
  Q 563.59 711.06 563.43 711.11
  Q 540.12 718.83 521.59 701.84
  C 511.27 692.38 504.27 680.43 498.24 667.58
  Q 497.13 665.22 496.26 662.60
  Q 443.40 502.37 390.56 342.24
  Z
  M 187.92 410.16
  Q 171.28 412.13 156.96 416.74
  C 75.07 443.09 26.65 528.39 38.48 612.81
  Q 39.02 616.67 40.54 618.68
  C 43.71 622.88 48.01 622.98 52.90 621.34
  Q 69.28 615.86 84.58 610.91
  C 91.09 608.80 98.35 611.37 100.61 618.24
  Q 118.41 672.32 138.33 732.60
  C 139.65 736.59 142.72 739.67 146.68 741.09
  C 181.35 753.58 219.22 755.09 254.47 744.24
  Q 298.45 730.70 328.82 698.74
  Q 360.93 664.95 371.66 620.05
  Q 383.82 569.13 364.90 519.04
  C 337.30 446.00 265.74 400.96 187.92 410.16
  Z
  M 768.72 643.43
  Q 733.26 654.95 697.71 666.81
  Q 697.63 666.84 697.63 666.92
  Q 697.63 667.10 697.55 667.28
  A 0.05 0.05 0.0 0 0 697.60 667.35
  C 720.47 667.00 745.74 676.07 753.82 699.84
  A 0.53 0.53 0.0 0 0 754.78 699.93
  Q 781.67 652.20 828.22 625.64
  C 832.51 623.19 836.97 621.14 841.43 618.96
  Q 843.25 618.07 841.22 618.23
  Q 832.05 618.97 823.90 613.09
  A 1.04 1.04 0.0 0 0 822.53 613.22
  Q 807.27 629.43 786.54 637.23
  Q 778.51 640.24 768.72 643.43
  Z
  M 891.12 624.08
  C 846.88 631.44 809.16 655.82 782.82 692.27
  Q 755.94 729.47 749.46 776.97
  Q 746.40 799.42 749.97 826.65
  C 750.81 833.06 756.58 836.55 762.79 834.54
  Q 778.90 829.33 794.42 824.07
  C 799.77 822.25 804.68 822.26 808.98 826.26
  Q 811.14 828.27 813.21 834.60
  Q 831.43 890.14 848.39 941.67
  C 850.65 948.54 852.73 952.13 859.39 954.42
  Q 904.69 970.01 949.99 960.95
  C 1017.76 947.39 1070.08 895.07 1084.15 827.80
  Q 1092.52 787.79 1081.66 748.41
  Q 1072.14 713.85 1050.76 686.24
  C 1012.99 637.47 952.06 613.93 891.12 624.08
  Z
  M 602.86 716.62
  C 570.80 727.17 540.03 743.88 517.05 767.30
  Q 471.53 813.68 471.29 879.82
  Q 471.25 890.12 472.53 899.94
  Q 479.27 951.38 508.76 990.81
  C 535.32 1026.34 574.65 1048.72 619.61 1053.01
  C 649.76 1055.88 679.89 1051.28 708.59 1041.77
  Q 772.52 1020.58 836.90 999.41
  C 841.55 997.88 844.55 993.20 844.76 988.45
  C 844.87 986.22 844.00 983.88 843.29 981.76
  Q 822.51 919.13 801.97 856.36
  Q 800.13 850.75 798.15 848.65
  C 794.68 845.00 789.10 843.17 784.30 844.73
  Q 758.08 853.26 731.76 862.12
  Q 722.16 865.35 717.04 865.41
  Q 700.81 865.58 690.76 852.53
  C 684.40 844.27 683.54 835.45 685.42 825.06
  Q 696.62 763.08 707.40 702.20
  C 708.20 697.67 707.53 693.63 703.99 690.29
  Q 699.82 686.35 693.92 686.79
  Q 692.21 686.92 685.48 689.18
  Q 640.82 704.12 602.86 716.62
  Z
  M 176.72 836.44
  L 176.72 836.45
  Q 176.78 836.57 176.91 836.53
  Q 233.08 818.03 289.17 799.51
  Q 289.33 799.45 289.29 799.29
  L 289.29 799.28
  Q 289.24 799.12 289.08 799.16
  Q 241.71 810.35 194.65 797.79
  A 0.31 0.30 1.9 0 0 194.27 798.14
  C 197.21 813.38 190.74 829.00 176.81 836.18
  Q 176.65 836.27 176.72 836.44
  Z
  M 143.28 848.59
  Q 143.34 848.55 143.38 848.50
  Q 143.84 847.77 143.02 848.04
  Q 116.27 856.78 89.50 865.60
  Q 89.28 865.68 89.34 865.91
  L 89.34 865.92
  Q 89.41 866.15 89.64 866.10
  Q 109.85 862.03 129.86 866.80
  A 0.82 0.82 0.0 0 0 130.85 866.19
  Q 133.59 854.50 143.28 848.59
  Z"
/>
<path fill="#1a1a1a" d="
  M 291.48 0.00
  L 497.99 0.00
  Q 497.19 16.17 509.05 26.22
  C 518.88 34.55 530.37 35.51 542.28 31.53
  Q 571.15 21.89 597.47 13.27
  C 604.42 10.99 611.96 14.93 614.31 21.71
  Q 615.08 23.93 615.82 26.18
  Q 636.42 88.77 657.15 151.34
  Q 658.58 155.64 658.11 158.34
  C 657.28 163.09 654.43 166.41 649.89 168.03
  Q 647.36 168.93 644.95 169.72
  Q 584.58 189.44 523.26 209.86
  Q 512.64 213.40 504.11 215.54
  C 474.28 223.01 442.55 224.92 412.94 218.26
  C 361.20 206.62 321.79 170.79 300.81 122.42
  Q 284.60 85.06 284.72 46.50
  Q 284.78 24.03 291.48 0.00
  Z"
/>
<path fill="#1a1a1a" d="
  M 563.13 0.00
  L 586.50 0.00
  Q 580.18 1.75 573.89 3.69
  Q 572.39 4.15 570.15 3.35
  C 567.97 2.57 565.97 0.61 563.13 0.00
  Z"
/>
<path fill="#1a1a1a" d="
  M 625.49 0.00
  L 896.96 0.00
  Q 880.25 67.55 823.70 104.96
  Q 792.02 125.92 751.37 131.30
  Q 710.89 136.65 671.12 122.14
  C 665.91 120.25 663.94 116.26 662.13 110.73
  Q 643.86 55.14 625.49 0.00
  Z"
/>
<path fill="#1a1a1a" d="
  M 962.36 0.00
  L 1367.50 0.00
  Q 1363.16 1.42 1359.08 3.56
  C 1325.09 21.40 1298.50 47.77 1279.51 81.24
  A 0.42 0.42 0.0 0 1 1278.75 81.17
  C 1269.59 55.53 1242.45 47.40 1217.82 48.56
  Q 1214.28 48.73 1210.65 49.91
  Q 1162.01 65.80 1115.27 81.46
  Q 1108.37 83.78 1095.26 89.48
  C 1060.57 104.56 1030.02 127.37 1008.10 158.19
  Q 1007.75 158.68 1007.16 158.75
  L 1003.58 159.21
  Q 1002.65 159.33 1002.42 158.42
  Q 1001.08 153.16 998.99 149.14
  C 991.24 134.21 974.78 127.68 958.75 132.97
  Q 902.60 151.51 846.47 170.04
  Q 846.27 170.10 846.19 169.91
  L 846.19 169.90
  Q 846.11 169.70 846.30 169.61
  C 852.98 166.53 859.97 163.34 866.04 159.76
  Q 930.83 121.62 954.03 49.76
  Q 961.77 25.77 962.36 0.00
  Z"
/>
<path fill="#1a1a1a" d="
  M 1519.13 0.00
  L 1637.29 0.00
  Q 1679.10 126.92 1720.91 253.49
  Q 1723.40 261.02 1726.30 266.55
  C 1736.70 286.40 1752.35 308.47 1777.38 307.08
  Q 1782.37 306.80 1795.94 302.32
  Q 1863.59 280.01 1931.00 257.70
  L 1931.00 275.11
  Q 1929.04 274.27 1926.88 273.85
  Q 1919.01 272.34 1911.00 271.92
  Q 1903.30 271.50 1896.37 273.79
  Q 1851.05 288.73 1805.52 303.78
  Q 1783.74 310.98 1761.87 322.91
  C 1735.29 337.42 1712.11 357.06 1694.72 381.79
  A 1.54 1.52 14.7 0 1 1693.63 382.42
  L 1689.74 382.81
  A 0.68 0.68 0.0 0 1 1689.01 382.29
  C 1685.07 365.72 1672.93 354.81 1656.03 354.66
  Q 1650.94 354.61 1641.72 357.67
  Q 1504.68 403.13 1364.78 449.04
  Q 1356.81 451.66 1353.12 454.35
  Q 1344.55 460.59 1342.18 471.07
  Q 1342.03 471.75 1341.35 471.59
  Q 1321.75 466.93 1302.22 470.62
  Q 1295.33 471.93 1283.24 475.94
  Q 1186.11 508.13 1089.60 539.84
  C 1078.53 543.48 1073.47 554.76 1077.10 565.75
  Q 1129.83 725.30 1182.85 886.22
  C 1184.80 892.13 1187.78 897.32 1190.83 902.90
  C 1200.93 921.35 1217.46 938.98 1239.78 936.96
  C 1242.64 936.70 1245.47 935.85 1248.31 935.42
  Q 1249.54 935.23 1248.42 935.78
  C 1217.30 950.81 1189.72 972.45 1169.89 1000.53
  A 1.66 1.61 14.6 0 1 1168.71 1001.20
  L 1165.27 1001.50
  Q 1164.45 1001.57 1164.22 1000.77
  Q 1163.13 996.87 1161.65 993.41
  C 1156.27 980.90 1144.23 973.26 1130.77 973.45
  Q 1125.84 973.52 1118.34 976.00
  Q 978.90 1022.12 838.00 1068.49
  Q 831.77 1070.54 827.90 1073.44
  Q 821.56 1078.19 818.49 1086.00
  L 777.46 1086.00
  Q 827.85 1069.60 878.21 1052.85
  Q 887.25 1049.84 890.81 1047.41
  Q 906.38 1036.76 906.43 1017.15
  Q 906.44 1013.99 905.51 1011.03
  A 0.36 0.36 0.0 0 1 905.94 1010.58
  Q 964.43 1025.93 1021.56 1005.57
  C 1067.19 989.30 1104.25 956.79 1126.45 914.77
  Q 1159.06 853.06 1145.19 783.92
  Q 1143.31 774.53 1139.91 764.17
  C 1123.90 715.41 1092.02 676.04 1046.73 651.73
  C 1044.13 650.33 1042.09 648.50 1039.88 646.60
  Q 1024.53 633.38 1006.25 623.81
  Q 949.92 594.30 886.29 605.04
  Q 886.07 605.07 886.02 604.86
  L 886.02 604.85
  Q 885.97 604.65 886.16 604.59
  Q 1001.87 566.45 1119.74 527.56
  C 1128.76 524.58 1136.93 516.81 1140.66 507.77
  Q 1146.43 493.79 1140.24 478.90
  A 0.41 0.41 0.0 0 1 1140.75 478.35
  C 1176.44 490.30 1215.06 490.48 1252.02 482.25
  C 1261.30 480.18 1270.37 477.88 1279.52 474.86
  Q 1341.18 454.48 1405.40 433.35
  C 1413.57 430.67 1420.08 426.58 1424.87 419.65
  Q 1433.32 407.43 1430.49 392.33
  Q 1430.38 391.71 1430.99 391.87
  Q 1475.39 403.44 1518.45 394.58
  Q 1568.82 384.23 1606.93 351.60
  C 1645.90 318.24 1669.66 270.25 1673.71 218.76
  Q 1674.51 208.56 1674.10 198.74
  C 1671.26 130.42 1633.82 66.22 1572.70 33.63
  Q 1569.11 31.71 1566.07 29.02
  Q 1550.31 15.07 1528.92 3.87
  Q 1523.54 1.05 1519.13 0.00
  Z"
/>
<path fill="#0f0f0f" d="
  M 1637.29 0.00
  L 1657.96 0.00
  L 1741.19 252.17
  Q 1741.52 253.15 1742.50 252.83
  L 1931.00 190.66
  L 1931.00 257.70
  Q 1863.59 280.01 1795.94 302.32
  Q 1782.37 306.80 1777.38 307.08
  C 1752.35 308.47 1736.70 286.40 1726.30 266.55
  Q 1723.40 261.02 1720.91 253.49
  Q 1679.10 126.92 1637.29 0.00
  Z"
/>
<path fill="#1a1a1a" d="
  M 1657.96 0.00
  L 1925.00 0.00
  Q 1913.74 13.24 1898.11 20.96
  Q 1898.02 21.01 1897.99 21.11
  Q 1897.95 21.28 1898.14 21.37
  Q 1898.32 21.47 1898.51 21.39
  C 1906.75 18.23 1915.70 15.69 1924.50 14.97
  Q 1927.79 14.70 1931.00 14.27
  L 1931.00 190.66
  L 1742.50 252.83
  Q 1741.52 253.15 1741.19 252.17
  L 1657.96 0.00
  Z"
/>
<path fill="#0f0f0f" d="
  M 1925.00 0.00
  L 1931.00 0.00
  L 1931.00 14.27
  Q 1927.79 14.70 1924.50 14.97
  C 1915.70 15.69 1906.75 18.23 1898.51 21.39
  Q 1898.32 21.47 1898.14 21.37
  Q 1897.95 21.28 1897.99 21.11
  Q 1898.02 21.01 1898.11 20.96
  Q 1913.74 13.24 1925.00 0.00
  Z"
/>
<path fill="#1a1a1a" d="
  M 1561.28 296.46
  Q 1532.41 324.86 1494.07 337.09
  Q 1437.50 355.14 1381.83 334.64
  Q 1376.53 332.69 1374.37 326.15
  Q 1356.53 272.21 1336.95 212.76
  C 1334.37 204.93 1327.03 202.61 1319.61 205.14
  Q 1303.44 210.68 1286.70 216.02
  C 1283.48 217.05 1279.57 215.90 1277.35 213.42
  Q 1275.12 210.93 1274.55 206.46
  Q 1273.96 201.78 1273.64 197.98
  Q 1269.16 145.47 1292.40 98.66
  C 1303.73 75.84 1320.24 54.78 1340.33 38.98
  Q 1388.09 1.41 1449.20 2.95
  C 1488.84 3.96 1527.80 20.13 1556.76 46.88
  Q 1579.45 67.83 1593.80 96.54
  Q 1601.98 112.88 1606.43 129.36
  Q 1620.00 179.56 1603.71 228.47
  Q 1590.70 267.52 1561.28 296.46
  Z"
/>
<path fill="#1a1a1a" d="
  M 1304.73 227.30
  Q 1306.71 226.65 1308.75 226.05
  C 1316.05 223.91 1323.42 227.58 1325.81 234.85
  Q 1347.43 300.47 1369.18 366.28
  C 1371.14 372.20 1367.03 378.90 1361.32 380.78
  Q 1294.80 402.68 1227.76 424.81
  C 1220.78 427.12 1213.63 428.72 1206.51 430.29
  Q 1177.38 436.70 1147.70 434.53
  C 1101.77 431.18 1059.83 408.17 1032.69 370.90
  Q 1008.52 337.72 999.97 297.03
  C 990.25 250.85 998.79 203.55 1027.12 165.61
  C 1051.30 133.22 1087.46 111.33 1125.97 98.44
  Q 1169.17 83.97 1215.87 68.72
  C 1224.86 65.78 1234.06 72.88 1232.38 82.39
  Q 1221.88 141.86 1210.53 204.56
  Q 1208.77 214.30 1209.48 219.10
  C 1211.93 235.73 1226.26 247.37 1242.90 246.57
  Q 1247.72 246.33 1257.33 243.11
  Q 1280.94 235.21 1304.73 227.30
  Z"
/>
<path fill="#1a1a1a" d="
  M 0.00 115.25
  Q 1.65 121.83 2.75 128.50
  Q 6.25 149.81 0.00 170.40
  L 0.00 115.25
  Z"
/>
<path fill="#1a1a1a" d="
  M 723.73 403.33
  Q 741.38 369.20 732.77 330.59
  C 725.85 299.59 706.86 272.69 679.00 257.67
  C 675.37 255.71 673.31 253.64 675.57 249.45
  C 676.88 247.04 679.05 245.75 681.58 244.92
  Q 820.46 199.21 959.17 153.29
  Q 967.86 150.41 970.56 150.67
  C 978.53 151.43 981.56 156.82 983.82 163.85
  Q 987.15 174.24 990.55 184.69
  C 991.99 189.12 991.76 192.98 990.23 197.63
  Q 980.57 226.90 980.79 256.55
  Q 980.84 263.98 979.83 267.23
  C 977.95 273.27 973.15 276.63 967.17 278.52
  Q 956.02 282.05 946.56 285.33
  C 940.08 287.57 936.79 294.93 938.86 301.28
  Q 944.44 318.42 950.86 337.51
  Q 952.28 341.72 951.86 344.87
  C 951.15 350.30 947.59 354.39 942.43 356.07
  Q 914.85 365.06 888.34 373.86
  C 880.52 376.46 877.88 384.15 880.49 391.98
  Q 883.55 401.16 891.95 402.23
  Q 894.56 402.56 897.07 401.74
  Q 947.42 385.17 997.07 368.80
  C 1005.10 366.15 1012.78 369.04 1017.43 375.92
  Q 1037.03 404.94 1065.82 425.14
  C 1069.64 427.81 1072.28 432.04 1073.68 436.43
  Q 1076.62 445.65 1079.65 454.34
  C 1082.20 461.65 1083.37 467.70 1077.59 473.20
  Q 1075.64 475.05 1071.18 476.52
  Q 936.36 520.91 802.43 565.11
  C 797.95 566.59 794.36 562.16 796.42 558.12
  Q 810.72 530.09 806.73 497.67
  C 801.89 458.28 776.32 420.75 737.83 407.90
  Q 731.20 405.68 724.21 404.33
  A 0.70 0.69 -70.8 0 1 723.73 403.33
  Z"
/>
<path fill="#1a1a1a" d="
  M 702.17 217.11
  C 716.01 209.62 721.74 194.46 719.12 179.30
  A 0.21 0.21 0.0 0 1 719.38 179.06
  Q 766.67 191.32 812.31 180.67
  Q 816.99 179.58 812.44 181.12
  Q 749.96 202.21 702.28 217.36
  Q 700.87 217.81 702.17 217.11
  Z"
/>
<path fill="#1a1a1a" d="
  M 0.00 208.20
  Q 2.72 208.74 5.51 209.13
  C 24.68 211.87 42.97 223.56 54.79 238.77
  Q 77.07 267.43 75.93 303.79
  C 75.08 331.14 60.85 356.08 36.70 369.15
  Q 31.32 372.06 18.49 376.29
  Q 9.21 379.34 0.00 382.46
  L 0.00 208.20
  Z"
/>
<path fill="#1a1a1a" d="
  M 654.72 247.99
  C 641.24 244.94 627.13 244.39 614.05 247.47
  Q 614.01 247.48 614.00 247.44
  L 613.92 247.15
  Q 613.88 247.00 614.02 246.96
  L 667.75 229.27
  Q 670.08 228.50 667.99 229.78
  Q 658.77 235.42 655.47 247.54
  Q 655.31 248.12 654.72 247.99
  Z"
/>
<path fill="#1a1a1a" d="
  M 672.77 427.21
  L 672.87 427.46
  A 0.37 0.37 0.0 0 0 673.35 427.68
  Q 685.56 423.35 693.85 422.07
  Q 728.49 416.76 755.80 440.64
  C 777.64 459.73 788.92 489.97 787.19 518.86
  C 785.64 544.91 772.03 568.41 749.18 581.30
  Q 743.21 584.68 732.55 588.19
  Q 623.01 624.32 516.64 659.36
  A 0.66 0.66 0.0 0 1 515.80 658.94
  L 409.11 335.62
  A 0.79 0.78 72.1 0 1 409.61 334.63
  Q 505.46 303.12 602.04 271.12
  Q 613.66 267.28 621.16 265.96
  C 645.73 261.66 670.14 270.70 687.63 288.43
  C 723.79 325.10 727.74 392.05 680.77 422.96
  Q 677.02 425.42 672.81 427.12
  Q 672.74 427.15 672.77 427.21
  Z"
/>
<path fill="#1a1a1a" d="
  M 551.62 267.36
  Q 482.88 289.90 415.30 312.26
  Q 411.44 313.54 414.97 311.51
  Q 425.07 305.70 429.67 293.97
  Q 434.85 280.78 428.92 266.18
  A 0.41 0.41 0.0 0 1 429.42 265.64
  Q 456.36 274.44 484.64 275.10
  Q 517.83 275.87 551.54 266.90
  Q 551.73 266.85 551.79 267.04
  L 551.79 267.05
  Q 551.86 267.29 551.62 267.36
  Z"
/>
<path fill="#0f0f0f" d="
  M 1931.00 275.11
  L 1931.00 469.94
  C 1913.76 471.85 1898.35 459.50 1896.11 442.52
  Q 1895.42 437.31 1897.26 427.19
  Q 1908.55 365.11 1918.84 306.41
  Q 1920.35 297.83 1913.12 293.37
  C 1907.74 290.06 1902.91 292.08 1897.57 293.84
  Q 1856.89 307.25 1814.52 321.35
  C 1780.60 332.64 1748.29 350.27 1724.26 376.50
  Q 1685.05 419.30 1682.80 478.07
  Q 1681.87 502.44 1688.17 527.71
  C 1695.12 555.58 1708.27 582.74 1727.15 604.36
  C 1755.15 636.43 1792.46 654.97 1835.04 658.16
  C 1857.62 659.85 1880.57 657.30 1902.60 651.71
  Q 1906.86 650.63 1916.79 647.47
  Q 1923.84 645.22 1931.00 643.24
  L 1931.00 707.17
  Q 1903.44 712.79 1875.25 711.09
  Q 1850.63 709.61 1827.30 701.97
  A 0.28 0.28 0.0 0 0 1826.94 702.31
  C 1827.67 705.16 1829.00 708.12 1829.44 710.98
  Q 1832.62 731.90 1816.57 745.42
  Q 1814.62 747.06 1811.57 748.52
  Q 1811.48 748.57 1811.52 748.66
  L 1811.64 748.91
  A 0.40 0.39 68.0 0 0 1812.13 749.12
  Q 1886.55 724.14 1929.99 710.15
  Q 1930.63 709.94 1931.00 710.76
  L 1931.00 730.17
  L 1779.89 780.10
  A 0.73 0.72 -18.3 0 0 1779.42 781.02
  L 1880.06 1086.00
  L 1859.36 1086.00
  Q 1843.23 1037.43 1827.19 988.81
  Q 1795.61 893.12 1763.07 794.32
  Q 1759.26 782.76 1759.57 779.44
  Q 1760.44 769.87 1767.87 764.40
  Q 1769.31 763.35 1767.62 763.91
  L 1572.78 828.15
  Q 1570.43 828.92 1572.87 828.54
  Q 1581.66 827.14 1590.77 826.34
  C 1640.21 821.99 1690.00 838.68 1727.45 871.07
  Q 1730.64 873.83 1735.06 876.25
  Q 1792.14 907.63 1819.11 968.48
  Q 1824.93 981.63 1828.93 996.05
  Q 1841.22 1040.43 1832.00 1086.00
  L 1759.68 1086.00
  C 1776.99 1046.00 1779.16 1002.37 1764.97 961.20
  C 1751.28 921.48 1725.05 888.45 1688.94 867.55
  Q 1652.86 846.67 1609.73 845.28
  Q 1599.65 844.96 1589.42 846.07
  Q 1567.82 848.40 1550.68 854.48
  Q 1503.86 871.08 1473.35 910.59
  Q 1437.78 956.66 1434.76 1016.21
  Q 1434.01 1031.03 1436.45 1049.26
  Q 1436.92 1052.77 1438.24 1054.76
  C 1440.32 1057.87 1444.78 1059.57 1448.48 1058.39
  Q 1464.61 1053.21 1481.42 1047.52
  C 1486.51 1045.79 1491.65 1046.04 1495.73 1049.95
  Q 1497.61 1051.76 1499.69 1058.11
  Q 1504.26 1072.07 1508.91 1086.00
  L 1490.57 1086.00
  C 1489.00 1081.74 1487.80 1075.97 1485.20 1072.85
  Q 1481.07 1067.88 1475.13 1067.77
  Q 1472.40 1067.73 1464.84 1070.26
  Q 1440.82 1078.31 1416.74 1086.00
  L 1389.43 1086.00
  C 1376.43 1079.70 1368.95 1066.07 1371.46 1051.99
  Q 1382.52 990.06 1393.57 928.13
  Q 1394.51 922.85 1394.25 920.82
  C 1393.30 913.47 1385.20 908.58 1378.19 910.89
  Q 1323.51 928.84 1287.69 940.81
  Q 1267.14 947.68 1247.89 958.08
  C 1204.27 981.67 1171.56 1019.75 1161.29 1069.00
  Q 1159.87 1075.80 1158.59 1086.00
  L 1142.96 1086.00
  Q 1144.51 1061.92 1152.16 1039.05
  Q 1154.16 1033.09 1152.53 1027.86
  Q 1149.67 1018.62 1145.05 1004.61
  C 1143.04 998.49 1139.78 994.01 1132.93 993.07
  Q 1130.04 992.67 1121.88 995.37
  Q 984.45 1040.82 847.02 1086.00
  L 818.49 1086.00
  Q 821.56 1078.19 827.90 1073.44
  Q 831.77 1070.54 838.00 1068.49
  Q 978.90 1022.12 1118.34 976.00
  Q 1125.84 973.52 1130.77 973.45
  C 1144.23 973.26 1156.27 980.90 1161.65 993.41
  Q 1163.13 996.87 1164.22 1000.77
  Q 1164.45 1001.57 1165.27 1001.50
  L 1168.71 1001.20
  A 1.66 1.61 14.6 0 0 1169.89 1000.53
  C 1189.72 972.45 1217.30 950.81 1248.42 935.78
  Q 1249.54 935.23 1248.31 935.42
  C 1245.47 935.85 1242.64 936.70 1239.78 936.96
  C 1217.46 938.98 1200.93 921.35 1190.83 902.90
  C 1187.78 897.32 1184.80 892.13 1182.85 886.22
  Q 1129.83 725.30 1077.10 565.75
  C 1073.47 554.76 1078.53 543.48 1089.60 539.84
  Q 1186.11 508.13 1283.24 475.94
  Q 1295.33 471.93 1302.22 470.62
  Q 1321.75 466.93 1341.35 471.59
  Q 1342.03 471.75 1342.18 471.07
  Q 1344.55 460.59 1353.12 454.35
  Q 1356.81 451.66 1364.78 449.04
  Q 1504.68 403.13 1641.72 357.67
  Q 1650.94 354.61 1656.03 354.66
  C 1672.93 354.81 1685.07 365.72 1689.01 382.29
  A 0.68 0.68 0.0 0 0 1689.74 382.81
  L 1693.63 382.42
  A 1.54 1.52 14.7 0 0 1694.72 381.79
  C 1712.11 357.06 1735.29 337.42 1761.87 322.91
  Q 1783.74 310.98 1805.52 303.78
  Q 1851.05 288.73 1896.37 273.79
  Q 1903.30 271.50 1911.00 271.92
  Q 1919.01 272.34 1926.88 273.85
  Q 1929.04 274.27 1931.00 275.11
  Z
  M 1620.19 385.36
  Q 1493.46 427.18 1366.75 469.00
  C 1363.73 469.99 1360.42 473.84 1361.44 477.46
  Q 1361.90 479.10 1363.30 479.84
  Q 1390.71 494.37 1405.92 520.22
  Q 1421.13 546.04 1422.10 575.99
  Q 1422.97 602.75 1410.40 626.52
  A 0.99 0.98 19.5 0 0 1411.08 627.94
  Q 1442.39 634.06 1464.05 657.46
  Q 1488.35 683.71 1493.26 721.17
  Q 1497.43 752.99 1483.24 781.07
  C 1481.91 783.71 1482.05 786.52 1484.64 788.28
  Q 1486.52 789.56 1489.03 788.73
  Q 1617.84 746.12 1758.26 699.91
  Q 1762.00 698.68 1763.93 697.01
  C 1769.47 692.23 1768.96 685.95 1766.52 678.81
  Q 1763.19 669.07 1760.34 660.25
  C 1758.48 654.52 1755.46 650.64 1750.47 647.28
  Q 1748.33 645.84 1746.76 644.65
  Q 1721.66 625.59 1704.45 600.08
  C 1701.03 595.01 1696.83 591.87 1690.49 591.41
  Q 1686.95 591.15 1681.51 592.96
  Q 1632.92 609.13 1584.74 624.99
  C 1578.13 627.17 1570.05 624.65 1567.83 617.39
  Q 1567.43 616.10 1566.94 614.85
  C 1564.09 607.61 1567.74 599.79 1575.11 597.36
  Q 1599.23 589.41 1629.27 579.50
  C 1636.65 577.06 1640.18 569.53 1637.77 562.21
  Q 1631.79 544.07 1625.47 525.05
  C 1623.85 520.17 1625.25 514.73 1629.07 511.38
  Q 1631.70 509.09 1636.49 507.63
  Q 1645.91 504.77 1656.21 501.15
  C 1664.28 498.31 1667.46 491.38 1667.33 483.15
  Q 1666.79 451.00 1677.09 420.41
  C 1678.43 416.46 1678.34 411.64 1677.00 407.69
  Q 1673.86 398.46 1670.30 387.13
  C 1668.18 380.41 1665.21 375.28 1657.73 374.29
  Q 1654.83 373.91 1646.13 376.79
  Q 1633.31 381.04 1620.19 385.36
  Z
  M 1359.84 650.77
  Q 1392.84 633.77 1400.31 597.07
  C 1405.73 570.46 1397.73 540.78 1381.03 519.68
  C 1363.20 497.16 1336.35 484.77 1307.74 489.49
  Q 1301.04 490.59 1289.16 494.52
  Q 1191.48 526.84 1096.31 558.19
  Q 1095.46 558.47 1095.74 559.32
  L 1202.36 882.42
  A 0.68 0.67 -16.7 0 0 1203.18 882.86
  Q 1205.78 882.12 1208.27 881.30
  Q 1313.68 846.49 1417.35 812.39
  Q 1429.52 808.39 1435.60 804.99
  C 1475.25 782.80 1482.82 733.08 1464.42 694.02
  C 1449.42 662.19 1418.84 640.81 1382.75 645.22
  Q 1375.19 646.14 1359.98 651.11
  A 0.18 0.18 0.0 0 1 1359.84 650.77
  Z
  M 1441.54 923.26
  C 1461.08 888.29 1490.39 860.37 1526.60 843.17
  Q 1527.41 842.79 1528.29 842.61
  Q 1528.38 842.59 1528.46 842.53
  Q 1528.57 842.44 1528.56 842.27
  A 0.30 0.29 0.0 0 0 1528.27 841.99
  Q 1523.25 841.80 1521.75 841.52
  Q 1515.28 840.33 1510.16 836.47
  A 0.61 0.60 -49.9 0 0 1509.36 836.54
  Q 1496.98 849.67 1480.94 857.51
  Q 1475.20 860.31 1462.26 864.60
  Q 1422.56 877.76 1384.14 890.37
  Q 1383.31 890.65 1384.18 890.70
  Q 1388.78 890.99 1393.41 891.40
  C 1414.00 893.23 1433.03 902.90 1440.29 923.15
  A 0.69 0.69 0.0 0 0 1441.54 923.26
  Z"
/>
<path fill="#1a1a1a" d="
  M 1931.00 469.94
  L 1931.00 643.24
  Q 1923.84 645.22 1916.79 647.47
  Q 1906.86 650.63 1902.60 651.71
  C 1880.57 657.30 1857.62 659.85 1835.04 658.16
  C 1792.46 654.97 1755.15 636.43 1727.15 604.36
  C 1708.27 582.74 1695.12 555.58 1688.17 527.71
  Q 1681.87 502.44 1682.80 478.07
  Q 1685.05 419.30 1724.26 376.50
  C 1748.29 350.27 1780.60 332.64 1814.52 321.35
  Q 1856.89 307.25 1897.57 293.84
  C 1902.91 292.08 1907.74 290.06 1913.12 293.37
  Q 1920.35 297.83 1918.84 306.41
  Q 1908.55 365.11 1897.26 427.19
  Q 1895.42 437.31 1896.11 442.52
  C 1898.35 459.50 1913.76 471.85 1931.00 469.94
  Z"
/>
<path fill="#1a1a1a" d="
  M 396.87 319.52
  C 389.81 325.10 387.72 333.63 390.56 342.24
  Q 443.40 502.37 496.26 662.60
  Q 497.13 665.22 498.24 667.58
  C 504.27 680.43 511.27 692.38 521.59 701.84
  Q 540.12 718.83 563.43 711.11
  Q 563.59 711.06 563.63 711.22
  Q 563.65 711.27 563.63 711.32
  Q 563.62 711.37 563.57 711.40
  C 531.97 726.19 503.94 748.01 483.59 776.55
  C 482.50 778.08 480.24 777.81 478.59 777.87
  A 0.85 0.85 0.0 0 1 477.75 777.30
  Q 476.88 774.84 476.06 772.28
  C 471.41 757.83 456.65 748.45 441.76 750.03
  Q 437.51 750.48 428.76 753.39
  Q 374.82 771.33 320.83 789.05
  Q 320.68 789.10 320.62 788.95
  L 320.62 788.94
  Q 320.54 788.73 320.75 788.64
  C 350.37 776.05 376.97 756.02 396.73 730.45
  Q 432.45 684.23 437.44 625.74
  Q 438.29 615.72 437.95 605.75
  Q 436.11 552.77 408.04 507.21
  C 390.10 478.11 365.81 455.43 335.87 439.22
  Q 332.82 437.57 329.80 434.97
  C 286.54 397.60 230.05 382.43 173.82 392.50
  Q 173.66 392.53 173.62 392.37
  L 173.62 392.37
  Q 173.58 392.21 173.74 392.16
  Q 285.31 355.39 396.45 318.74
  Q 398.86 317.94 396.87 319.52
  Z"
/>
<path fill="#1a1a1a" d="
  M 1620.19 385.36
  Q 1633.31 381.04 1646.13 376.79
  Q 1654.83 373.91 1657.73 374.29
  C 1665.21 375.28 1668.18 380.41 1670.30 387.13
  Q 1673.86 398.46 1677.00 407.69
  C 1678.34 411.64 1678.43 416.46 1677.09 420.41
  Q 1666.79 451.00 1667.33 483.15
  C 1667.46 491.38 1664.28 498.31 1656.21 501.15
  Q 1645.91 504.77 1636.49 507.63
  Q 1631.70 509.09 1629.07 511.38
  C 1625.25 514.73 1623.85 520.17 1625.47 525.05
  Q 1631.79 544.07 1637.77 562.21
  C 1640.18 569.53 1636.65 577.06 1629.27 579.50
  Q 1599.23 589.41 1575.11 597.36
  C 1567.74 599.79 1564.09 607.61 1566.94 614.85
  Q 1567.43 616.10 1567.83 617.39
  C 1570.05 624.65 1578.13 627.17 1584.74 624.99
  Q 1632.92 609.13 1681.51 592.96
  Q 1686.95 591.15 1690.49 591.41
  C 1696.83 591.87 1701.03 595.01 1704.45 600.08
  Q 1721.66 625.59 1746.76 644.65
  Q 1748.33 645.84 1750.47 647.28
  C 1755.46 650.64 1758.48 654.52 1760.34 660.25
  Q 1763.19 669.07 1766.52 678.81
  C 1768.96 685.95 1769.47 692.23 1763.93 697.01
  Q 1762.00 698.68 1758.26 699.91
  Q 1617.84 746.12 1489.03 788.73
  Q 1486.52 789.56 1484.64 788.28
  C 1482.05 786.52 1481.91 783.71 1483.24 781.07
  Q 1497.43 752.99 1493.26 721.17
  Q 1488.35 683.71 1464.05 657.46
  Q 1442.39 634.06 1411.08 627.94
  A 0.99 0.98 19.5 0 1 1410.40 626.52
  Q 1422.97 602.75 1422.10 575.99
  Q 1421.13 546.04 1405.92 520.22
  Q 1390.71 494.37 1363.30 479.84
  Q 1361.90 479.10 1361.44 477.46
  C 1360.42 473.84 1363.73 469.99 1366.75 469.00
  Q 1493.46 427.18 1620.19 385.36
  Z"
/>
<path fill="#1a1a1a" d="
  M 0.00 455.65
  L 0.00 449.39
  Q 56.27 431.15 72.54 425.57
  Q 93.96 418.24 111.35 400.30
  Q 111.80 399.83 112.32 400.22
  C 117.44 403.94 123.75 405.98 129.90 405.48
  Q 132.09 405.30 130.09 406.21
  C 93.31 422.97 63.30 451.70 43.53 487.04
  A 0.55 0.55 0.0 0 1 42.53 486.97
  Q 35.01 467.22 15.26 459.64
  Q 7.89 456.80 0.00 455.65
  Z"
/>
<path fill="#1a1a1a" d="
  M 187.92 410.16
  C 265.74 400.96 337.30 446.00 364.90 519.04
  Q 383.82 569.13 371.66 620.05
  Q 360.93 664.95 328.82 698.74
  Q 298.45 730.70 254.47 744.24
  C 219.22 755.09 181.35 753.58 146.68 741.09
  C 142.72 739.67 139.65 736.59 138.33 732.60
  Q 118.41 672.32 100.61 618.24
  C 98.35 611.37 91.09 608.80 84.58 610.91
  Q 69.28 615.86 52.90 621.34
  C 48.01 622.98 43.71 622.88 40.54 618.68
  Q 39.02 616.67 38.48 612.81
  C 26.65 528.39 75.07 443.09 156.96 416.74
  Q 171.28 412.13 187.92 410.16
  Z"
/>
<path fill="#1a1a1a" d="
  M 1359.98 651.11
  Q 1375.19 646.14 1382.75 645.22
  C 1418.84 640.81 1449.42 662.19 1464.42 694.02
  C 1482.82 733.08 1475.25 782.80 1435.60 804.99
  Q 1429.52 808.39 1417.35 812.39
  Q 1313.68 846.49 1208.27 881.30
  Q 1205.78 882.12 1203.18 882.86
  A 0.68 0.67 -16.7 0 1 1202.36 882.42
  L 1095.74 559.32
  Q 1095.46 558.47 1096.31 558.19
  Q 1191.48 526.84 1289.16 494.52
  Q 1301.04 490.59 1307.74 489.49
  C 1336.35 484.77 1363.20 497.16 1381.03 519.68
  C 1397.73 540.78 1405.73 570.46 1400.31 597.07
  Q 1392.84 633.77 1359.84 650.77
  A 0.18 0.18 0.0 0 0 1359.98 651.11
  Z"
/>
<path fill="#1a1a1a" d="
  M 768.72 643.43
  Q 778.51 640.24 786.54 637.23
  Q 807.27 629.43 822.53 613.22
  A 1.04 1.04 0.0 0 1 823.90 613.09
  Q 832.05 618.97 841.22 618.23
  Q 843.25 618.07 841.43 618.96
  C 836.97 621.14 832.51 623.19 828.22 625.64
  Q 781.67 652.20 754.78 699.93
  A 0.53 0.53 0.0 0 1 753.82 699.84
  C 745.74 676.07 720.47 667.00 697.60 667.35
  A 0.05 0.05 0.0 0 1 697.55 667.28
  Q 697.63 667.10 697.63 666.92
  Q 697.63 666.84 697.71 666.81
  Q 733.26 654.95 768.72 643.43
  Z"
/>
<path fill="#1a1a1a" d="
  M 891.12 624.08
  C 952.06 613.93 1012.99 637.47 1050.76 686.24
  Q 1072.14 713.85 1081.66 748.41
  Q 1092.52 787.79 1084.15 827.80
  C 1070.08 895.07 1017.76 947.39 949.99 960.95
  Q 904.69 970.01 859.39 954.42
  C 852.73 952.13 850.65 948.54 848.39 941.67
  Q 831.43 890.14 813.21 834.60
  Q 811.14 828.27 808.98 826.26
  C 804.68 822.26 799.77 822.25 794.42 824.07
  Q 778.90 829.33 762.79 834.54
  C 756.58 836.55 750.81 833.06 749.97 826.65
  Q 746.40 799.42 749.46 776.97
  Q 755.94 729.47 782.82 692.27
  C 809.16 655.82 846.88 631.44 891.12 624.08
  Z"
/>
<path fill="#1a1a1a" d="
  M 0.00 828.08
  L 0.00 652.21
  Q 9.16 653.37 18.45 650.04
  Q 21.06 649.11 23.67 648.25
  Q 44.71 641.37 66.14 634.11
  Q 74.96 631.12 77.86 631.46
  C 83.89 632.15 87.99 635.76 89.87 641.48
  Q 110.75 704.89 131.99 769.04
  C 133.96 774.98 134.16 779.67 129.62 784.15
  Q 127.88 785.88 123.19 787.42
  Q 61.50 807.73 0.00 828.08
  Z"
/>
<path fill="#1a1a1a" d="
  M 517.05 767.30
  C 540.03 743.88 570.80 727.17 602.86 716.62
  Q 640.82 704.12 685.48 689.18
  Q 692.21 686.92 693.92 686.79
  Q 699.82 686.35 703.99 690.29
  C 707.53 693.63 708.20 697.67 707.40 702.20
  Q 696.62 763.08 685.42 825.06
  C 683.54 835.45 684.40 844.27 690.76 852.53
  Q 700.81 865.58 717.04 865.41
  Q 722.16 865.35 731.76 862.12
  Q 758.08 853.26 784.30 844.73
  C 789.10 843.17 794.68 845.00 798.15 848.65
  Q 800.13 850.75 801.97 856.36
  Q 822.51 919.13 843.29 981.76
  C 844.00 983.88 844.87 986.22 844.76 988.45
  C 844.55 993.20 841.55 997.88 836.90 999.41
  Q 772.52 1020.58 708.59 1041.77
  C 679.89 1051.28 649.76 1055.88 619.61 1053.01
  C 574.65 1048.72 535.32 1026.34 508.76 990.81
  Q 479.27 951.38 472.53 899.94
  Q 471.25 890.12 471.29 879.82
  Q 471.53 813.68 517.05 767.30
  Z"
/>
<path fill="#1a1a1a" d="
  M 1931.00 707.17
  L 1931.00 710.76
  Q 1930.63 709.94 1929.99 710.15
  Q 1886.55 724.14 1812.13 749.12
  A 0.40 0.39 68.0 0 1 1811.64 748.91
  L 1811.52 748.66
  Q 1811.48 748.57 1811.57 748.52
  Q 1814.62 747.06 1816.57 745.42
  Q 1832.62 731.90 1829.44 710.98
  C 1829.00 708.12 1827.67 705.16 1826.94 702.31
  A 0.28 0.28 0.0 0 1 1827.30 701.97
  Q 1850.63 709.61 1875.25 711.09
  Q 1903.44 712.79 1931.00 707.17
  Z"
/>
<path fill="#1a1a1a" d="
  M 1931.00 730.17
  L 1931.00 1086.00
  L 1880.06 1086.00
  L 1779.42 781.02
  A 0.73 0.72 -18.3 0 1 1779.89 780.10
  L 1931.00 730.17
  Z"
/>
<path fill="#1a1a1a" d="
  M 1859.36 1086.00
  L 1832.00 1086.00
  Q 1841.22 1040.43 1828.93 996.05
  Q 1824.93 981.63 1819.11 968.48
  Q 1792.14 907.63 1735.06 876.25
  Q 1730.64 873.83 1727.45 871.07
  C 1690.00 838.68 1640.21 821.99 1590.77 826.34
  Q 1581.66 827.14 1572.87 828.54
  Q 1570.43 828.92 1572.78 828.15
  L 1767.62 763.91
  Q 1769.31 763.35 1767.87 764.40
  Q 1760.44 769.87 1759.57 779.44
  Q 1759.26 782.76 1763.07 794.32
  Q 1795.61 893.12 1827.19 988.81
  Q 1843.23 1037.43 1859.36 1086.00
  Z"
/>
<path fill="#1a1a1a" d="
  M 556.50 1086.00
  L 273.72 1086.00
  Q 262.90 1059.35 241.01 1041.97
  C 228.76 1032.24 215.14 1026.15 199.72 1023.21
  A 1.03 1.02 -70.6 0 1 199.01 1021.72
  Q 216.69 988.19 207.75 948.62
  C 200.72 917.50 180.94 890.14 152.52 875.48
  C 147.14 872.71 150.95 866.23 154.81 864.40
  Q 155.04 864.30 160.19 862.60
  Q 298.39 817.00 436.59 771.41
  Q 442.94 769.31 445.75 769.51
  C 452.80 770.00 456.44 774.73 458.47 781.08
  Q 462.09 792.44 465.53 802.66
  C 467.10 807.34 466.92 812.11 465.30 816.97
  C 458.81 836.47 455.43 857.53 455.90 878.28
  C 456.14 889.28 451.10 894.67 441.06 897.73
  Q 432.06 900.47 422.49 903.83
  Q 414.79 906.54 413.55 914.44
  Q 413.11 917.27 414.42 921.27
  Q 420.43 939.60 426.28 957.03
  C 428.13 962.57 426.88 968.69 422.25 972.32
  Q 420.00 974.09 414.57 975.87
  Q 391.02 983.58 367.50 991.25
  Q 361.12 993.34 359.06 995.19
  C 354.86 998.96 353.53 1004.25 355.35 1009.52
  C 355.99 1011.38 356.51 1013.36 357.58 1015.01
  C 360.83 1020.03 366.92 1022.31 372.72 1020.40
  Q 422.88 1003.84 471.89 987.65
  C 477.44 985.81 483.56 986.39 488.13 989.94
  Q 490.89 992.08 493.70 996.20
  Q 512.91 1024.33 541.22 1044.08
  C 545.32 1046.94 547.45 1051.23 549.06 1055.89
  Q 554.03 1070.28 556.58 1078.74
  Q 557.58 1082.03 556.50 1086.00
  Z"
/>
<path fill="#1a1a1a" d="
  M 176.81 836.18
  C 190.74 829.00 197.21 813.38 194.27 798.14
  A 0.31 0.30 1.9 0 1 194.65 797.79
  Q 241.71 810.35 289.08 799.16
  Q 289.24 799.12 289.29 799.28
  L 289.29 799.29
  Q 289.33 799.45 289.17 799.51
  Q 233.08 818.03 176.91 836.53
  Q 176.78 836.57 176.72 836.45
  L 176.72 836.44
  Q 176.65 836.27 176.81 836.18
  Z"
/>
<path fill="#1a1a1a" d="
  M 1526.60 843.17
  C 1490.39 860.37 1461.08 888.29 1441.54 923.26
  A 0.69 0.69 0.0 0 1 1440.29 923.15
  C 1433.03 902.90 1414.00 893.23 1393.41 891.40
  Q 1388.78 890.99 1384.18 890.70
  Q 1383.31 890.65 1384.14 890.37
  Q 1422.56 877.76 1462.26 864.60
  Q 1475.20 860.31 1480.94 857.51
  Q 1496.98 849.67 1509.36 836.54
  A 0.61 0.60 -49.9 0 1 1510.16 836.47
  Q 1515.28 840.33 1521.75 841.52
  Q 1523.25 841.80 1528.27 841.99
  A 0.30 0.29 0.0 0 1 1528.56 842.27
  Q 1528.57 842.44 1528.46 842.53
  Q 1528.38 842.59 1528.29 842.61
  Q 1527.41 842.79 1526.60 843.17
  Z"
/>
<path fill="#1a1a1a" d="
  M 1759.68 1086.00
  L 1508.91 1086.00
  Q 1504.26 1072.07 1499.69 1058.11
  Q 1497.61 1051.76 1495.73 1049.95
  C 1491.65 1046.04 1486.51 1045.79 1481.42 1047.52
  Q 1464.61 1053.21 1448.48 1058.39
  C 1444.78 1059.57 1440.32 1057.87 1438.24 1054.76
  Q 1436.92 1052.77 1436.45 1049.26
  Q 1434.01 1031.03 1434.76 1016.21
  Q 1437.78 956.66 1473.35 910.59
  Q 1503.86 871.08 1550.68 854.48
  Q 1567.82 848.40 1589.42 846.07
  Q 1599.65 844.96 1609.73 845.28
  Q 1652.86 846.67 1688.94 867.55
  C 1725.05 888.45 1751.28 921.48 1764.97 961.20
  C 1779.16 1002.37 1776.99 1046.00 1759.68 1086.00
  Z"
/>
<path fill="#1a1a1a" d="
  M 143.28 848.59
  Q 133.59 854.50 130.85 866.19
  A 0.82 0.82 0.0 0 1 129.86 866.80
  Q 109.85 862.03 89.64 866.10
  Q 89.41 866.15 89.34 865.92
  L 89.34 865.91
  Q 89.28 865.68 89.50 865.60
  Q 116.27 856.78 143.02 848.04
  Q 143.84 847.77 143.38 848.50
  Q 143.34 848.55 143.28 848.59
  Z"
/>
<path fill="#1a1a1a" d="
  M 251.52 1086.00
  L 0.00 1086.00
  L 0.00 915.36
  Q 38.63 902.69 77.00 890.06
  Q 90.40 885.65 96.23 884.67
  C 120.01 880.65 143.67 888.79 161.12 905.59
  Q 182.82 926.48 188.73 957.02
  Q 193.29 980.53 186.56 1001.44
  Q 176.88 1031.53 148.67 1045.79
  Q 148.41 1045.92 148.53 1046.18
  L 148.63 1046.42
  Q 148.64 1046.45 148.68 1046.44
  Q 157.26 1043.27 165.60 1041.49
  C 183.99 1037.56 202.70 1040.72 218.78 1050.50
  Q 239.86 1063.30 251.52 1086.00
  Z"
/>
<path fill="#1a1a1a" d="
  M 0.00 894.95
  L 0.00 891.09
  Q 13.23 889.33 26.11 885.87
  Q 26.30 885.82 26.35 886.00
  L 26.35 886.01
  Q 26.41 886.19 26.23 886.25
  Q 13.11 890.58 0.00 894.95
  Z"
/>
<path fill="#1a1a1a" d="
  M 1389.43 1086.00
  L 1158.59 1086.00
  Q 1159.87 1075.80 1161.29 1069.00
  C 1171.56 1019.75 1204.27 981.67 1247.89 958.08
  Q 1267.14 947.68 1287.69 940.81
  Q 1323.51 928.84 1378.19 910.89
  C 1385.20 908.58 1393.30 913.47 1394.25 920.82
  Q 1394.51 922.85 1393.57 928.13
  Q 1382.52 990.06 1371.46 1051.99
  C 1368.95 1066.07 1376.43 1079.70 1389.43 1086.00
  Z"
/>
<path fill="#1a1a1a" d="
  M 1142.96 1086.00
  L 847.02 1086.00
  Q 984.45 1040.82 1121.88 995.37
  Q 1130.04 992.67 1132.93 993.07
  C 1139.78 994.01 1143.04 998.49 1145.05 1004.61
  Q 1149.67 1018.62 1152.53 1027.86
  Q 1154.16 1033.09 1152.16 1039.05
  Q 1144.51 1061.92 1142.96 1086.00
  Z"
/>
<path fill="#1a1a1a" d="
  M 1490.57 1086.00
  L 1416.74 1086.00
  Q 1440.82 1078.31 1464.84 1070.26
  Q 1472.40 1067.73 1475.13 1067.77
  Q 1481.07 1067.88 1485.20 1072.85
  C 1487.80 1075.97 1489.00 1081.74 1490.57 1086.00
  Z"
/>
</svg>
